<?xml version="1.0" encoding="UTF-8"?>
<svg version="1.1" xmlns="http://www.w3.org/2000/svg" width="1000" height="1000">
<path d="M0 0 C37.29 0 74.58 0 113 0 C116.12054908 6.86520798 119.10646054 13.6016096 121.7578125 20.6328125 C122.26850029 21.97318573 122.26850029 21.97318573 122.789505 23.34063721 C123.52177964 25.26337515 124.25253936 27.18669062 124.98190308 29.11053467 C126.97369376 34.3630936 128.97787352 39.61092809 130.98046875 44.859375 C131.39508865 45.94685028 131.80970856 47.03432556 132.2368927 48.15475464 C136.59513809 59.57780027 141.01140018 70.97810821 145.4375 82.375 C146.23193684 84.42138546 147.02637042 86.46777218 147.82080078 88.51416016 C149.4164497 92.62384549 151.01256201 96.73335056 152.60888672 100.84277344 C156.57735007 111.06000271 160.53816501 121.28019919 164.5 131.5 C166.0663274 135.54039516 167.63272226 139.58076415 169.19921875 143.62109375 C169.783013 145.12682701 169.783013 145.12682701 170.37860107 146.66297913 C172.88245972 153.12016521 175.38832075 159.57657124 177.89541626 166.03250122 C179.62019279 170.47412484 181.34430019 174.91600806 183.06835938 179.35791016 C183.88361897 181.45781155 184.69919967 183.55758831 185.51513672 185.65722656 C186.28406594 187.63594206 187.05250185 189.61484933 187.82040405 191.59396362 C188.54653652 193.46447492 189.2742113 195.33438835 190.00357056 197.2036438 C191.6388303 201.40960332 193.23580855 205.62078364 194.73193359 209.87841797 C194.99822067 210.62614975 195.26450775 211.37388153 195.53886414 212.14427185 C196.02451939 213.51800375 196.49847784 214.89595567 196.95783997 216.27870178 C197.92250109 218.99521584 198.65182091 220.73029786 200.95947266 222.51782227 C203.28357923 223.28938438 203.28357923 223.28938438 206.35546875 221.4375 C207.64329873 220.64172538 208.9202388 219.82813789 210.1875 219 C210.85080322 218.58371338 211.51410645 218.16742676 212.19750977 217.73852539 C214.14380272 216.51009825 216.0739767 215.25991461 218 214 C218.98484375 213.35933594 219.9696875 212.71867188 220.984375 212.05859375 C223.00336684 210.72438736 225.0091874 209.3757648 227 208 C224.35941736 206.23961158 221.78262227 204.82105983 218.95703125 203.390625 C217.96509766 202.88273438 216.97316406 202.37484375 215.95117188 201.8515625 C213.88054135 200.79498687 211.8076633 199.74280278 209.73242188 198.6953125 C193.47783301 190.34240563 193.47783301 190.34240563 191 184 C190.75450869 179.25383467 191.13083422 177.13672924 194.04296875 173.328125 C195.65320676 171.55660718 197.29459469 169.81280352 198.96875 168.1015625 C201.04115241 166.16773199 201.04115241 166.16773199 202 164 C201.28328125 163.7628125 200.5665625 163.525625 199.828125 163.28125 C196.54490731 161.79382541 194.395388 159.9394596 191.75 157.5 C190.87859375 156.7059375 190.0071875 155.911875 189.109375 155.09375 C186.51754609 152.52111982 186.08053772 151.56376405 185.5625 147.9375 C186.4806345 139.6742895 193.30205191 132.75668982 199 127 C201.58577028 125.70711486 203.52872651 125.82776227 206.42431641 125.76635742 C208.12716293 125.72577461 208.12716293 125.72577461 209.8644104 125.68437195 C211.09767059 125.65833389 212.33093079 125.63229584 213.6015625 125.60546875 C216.20184557 125.53665799 218.8021055 125.46696848 221.40234375 125.39648438 C225.51007506 125.28810705 229.61778183 125.18602921 233.72607422 125.10131836 C237.68519363 125.01896705 241.64320243 124.90618167 245.6015625 124.79296875 C247.43323471 124.76302071 247.43323471 124.76302071 249.3019104 124.73246765 C259.72340414 124.4027806 266.09098404 121.64764786 273.25 114.0625 C273.75273438 113.55009766 274.25546875 113.03769531 274.7734375 112.50976562 C277.04128866 110.17364146 279.11558249 107.84939902 281.1015625 105.26171875 C284.08659384 101.70547771 287.60921343 100.31929737 292 99 C293.68492586 98.87499777 295.37345685 98.79164051 297.0625 98.75 C301.39850698 98.4806828 303.25975672 97.32569623 306.3125 94.25 C307.5513778 92.84181786 308.78001377 91.4245802 310 90 C313.4481872 86.24722293 316.64804921 83.86816502 321.1875 81.5625 C325.26559459 79.45472077 329.19814441 77.28868902 333.0625 74.8125 C339.524981 70.89712063 346.33354874 68.11639528 353.9375 67.875 C357.92493325 69.3397714 360.22937064 71.17793662 362 75 C364.88873444 88.01104778 355.65984758 100.8224423 349.09326172 111.33544922 C348.03958629 112.9397277 346.88221235 114.474406 345.72265625 116.00390625 C343.60974032 119.67875096 343.70599017 121.8103599 344 126 C344.16101832 131.67738659 343.9958608 134.68015049 340 139 C335.4064295 144.33847382 331.70110445 150.00570402 328 156 C328.91454005 157.32100229 329.82916442 158.64194626 330.74414062 159.96264648 C331.5476094 161.12396131 332.34966687 162.28625368 333.15039062 163.44946289 C335.25741308 166.50604246 337.38414975 169.54344718 339.56640625 172.546875 C339.9744751 173.11575439 340.38254395 173.68463379 340.80297852 174.27075195 C341.94519155 175.86118401 343.09735396 177.44445656 344.25 179.02734375 C346.8362973 183.42058537 347.3795232 186.50901601 346.125 191.4375 C343.79898994 196.30489142 339.27291323 198.95501698 335 202 C334.20851563 202.70898438 333.41703125 203.41796875 332.6015625 204.1484375 C326.04217958 208.81682715 316.51795079 207.25438809 308.94628906 205.98852539 C305.61834732 205.37774938 302.30846795 204.70895742 299 204 C298.93425781 204.71800781 298.86851562 205.43601562 298.80078125 206.17578125 C297.7494651 209.8835938 295.94263482 211.52111037 293.1875 214.1875 C291.87845703 215.47720703 291.87845703 215.47720703 290.54296875 216.79296875 C285.86644497 220.8517029 283.21064418 221.20859452 277 221 C272.46001819 220.28193212 267.98583492 219.28803002 263.50195312 218.28393555 C261.3772925 217.81300813 259.24794639 217.37012939 257.1171875 216.92773438 C255.7522271 216.62670465 254.38762919 216.32402559 253.0234375 216.01953125 C251.79544434 215.75245361 250.56745117 215.48537598 249.30224609 215.21020508 C244.06112297 213.28944156 241.1429114 209.46624252 238 205 C237.27296875 205.99257813 236.5459375 206.98515625 235.796875 208.0078125 C230.58236525 215.07395888 225.28710428 222.02446565 219.5625 228.6875 C219.07942383 229.25033691 218.59634766 229.81317383 218.09863281 230.39306641 C217.63424805 230.92722168 217.16986328 231.46137695 216.69140625 232.01171875 C216.24812988 232.52524902 215.80485352 233.0387793 215.34814453 233.56787109 C214 235 214 235 211.08984375 237.33203125 C208.77440068 240.2880081 208.73504095 240.5741056 209.15185547 244.06713867 C209.87076483 249.22075044 211.54179086 253.78743185 213.48046875 258.59375 C214.02070427 259.97228149 214.02070427 259.97228149 214.57185364 261.37866211 C215.76725949 264.42307268 216.97756032 267.46133979 218.1875 270.5 C219.04225876 272.67073487 219.89574627 274.84197068 220.74804688 277.01367188 C222.09566797 280.44662808 223.44425513 283.8791785 224.79684448 287.31018066 C229.46485731 299.15180009 234.0438811 311.02718368 238.61621094 322.90600586 C240.93491377 328.92816965 243.2584204 334.94847857 245.58203125 340.96875 C246.26587387 342.7407074 246.26587387 342.7407074 246.96353149 344.54846191 C253.4407356 361.32802824 259.94769979 378.09605302 266.45558167 394.86373901 C269.37213827 402.37923179 272.28426857 409.89643298 275.1953125 417.4140625 C276.48526077 420.74432674 277.77528418 424.07456186 279.06533813 427.40478516 C279.88249144 429.51470312 280.69937558 431.62472535 281.51596069 433.73486328 C282.6518119 436.66988974 283.78854323 439.60457314 284.92578125 442.5390625 C285.27853622 443.44996643 285.6312912 444.36087036 285.99473572 445.29937744 C287.59683372 449.42662261 289.21259862 453.54701595 290.87255859 457.65136719 C291.29905952 458.70606705 291.29905952 458.70606705 291.73417664 459.78207397 C292.4832148 461.62631461 293.23782727 463.46828858 293.99291992 465.31005859 C295 468 295 468 295 470 C283.21197662 470.06974631 271.42400296 470.12293587 259.63581467 470.15543652 C254.16110658 470.17104122 248.68654047 470.19218395 243.21191406 470.22631836 C237.92101918 470.25909787 232.6302602 470.27689202 227.33927155 470.28463173 C225.32842115 470.29014202 223.31757755 470.30090161 221.30678558 470.31719017 C194.57007266 470.52500827 194.57007266 470.52500827 185.125 463.375 C184.28195312 462.76398438 183.43890625 462.15296875 182.5703125 461.5234375 C176.32842348 455.39538232 172.96713208 448.21829752 170.3125 440 C169.98043045 439.01069992 169.6483609 438.02139984 169.30622864 437.00212097 C168.19162227 433.67211568 167.09596028 430.33618408 166 427 C165.20537805 424.61323565 164.40935176 422.22693847 163.61206055 419.84106445 C162.28406308 415.86577033 160.95765954 411.88996791 159.63713074 407.91218567 C155.84087234 396.48158135 151.98706312 385.07090002 148.11914444 373.66436386 C146.04844503 367.5569762 143.98069316 361.44858975 141.91247749 355.34036064 C140.18915895 350.25111234 138.46487027 345.1621972 136.73852539 340.07397461 C135.094002 335.22576809 133.45411843 330.37601487 131.81757164 325.52511024 C131.20579303 323.71428403 130.59239954 321.90400253 129.97733498 320.09428978 C129.13149133 317.604863 128.29125035 315.11361405 127.45239258 312.62182617 C127.0763237 311.52147537 127.0763237 311.52147537 126.69265747 310.39889526 C125.71248913 307.47076605 125 305.11097002 125 302 C124.34 302 123.68 302 123 302 C123 301.34 123 300.68 123 300 C122.42596436 300.2902002 121.85192871 300.58040039 121.26049805 300.87939453 C93.15010214 314.97990968 63.8855999 326.26064454 34 336 C32.23462891 336.57741943 32.23462891 336.57741943 30.43359375 337.16650391 C19.1826644 340.81938317 7.93710693 344.35559096 -3.57421875 347.09375 C-4.28584167 347.26570892 -4.9974646 347.43766785 -5.73065186 347.61483765 C-9.18052632 348.4470818 -12.63213179 349.2496689 -16.10107422 349.99853516 C-17.33744629 350.29034668 -18.57381836 350.5821582 -19.84765625 350.8828125 C-20.94086182 351.12402832 -22.03406738 351.36524414 -23.16040039 351.61376953 C-27.98526008 353.96916058 -29.56093092 358.87433872 -31.43443298 363.67752075 C-31.88429062 365.00139825 -32.32627983 366.32796854 -32.76147461 367.65673828 C-33.00762009 368.38790359 -33.25376556 369.11906891 -33.50737 369.87239075 C-34.31255021 372.26946323 -35.10737281 374.66983705 -35.90234375 377.0703125 C-36.46684666 378.75576782 -37.03209096 380.44097499 -37.59803772 382.12594604 C-39.08363559 386.55425755 -40.5608721 390.98530936 -42.03582764 395.41717529 C-44.39032211 402.48799012 -46.75653381 409.55488408 -49.1246357 416.62115097 C-49.94340596 419.0687278 -50.75800402 421.51766138 -51.57200623 423.96682739 C-63.03094894 458.3313239 -63.03094894 458.3313239 -75.7890625 465.5859375 C-83.40119117 469.1355285 -89.70352322 470.14899368 -98.01293945 470.11352539 C-98.91099808 470.11367142 -99.8090567 470.11381744 -100.73432922 470.1139679 C-103.69400472 470.11327287 -106.65361679 470.10549965 -109.61328125 470.09765625 C-111.66879746 470.09579061 -113.72431412 470.0943674 -115.77983093 470.09336853 C-121.18357577 470.08955482 -126.58729363 470.0797343 -131.99102783 470.06866455 C-137.50768672 470.0584258 -143.02434997 470.05386563 -148.54101562 470.04882812 C-159.36068892 470.03811102 -170.18034221 470.02104834 -181 470 C-180.26850548 465.19391446 -178.98163264 460.94709851 -177.17578125 456.44921875 C-176.88157791 455.70198044 -176.58737457 454.95474213 -176.28425598 454.18486023 C-175.63920213 452.54801619 -174.99154391 450.91219668 -174.34161377 449.27728271 C-172.54195839 444.74841864 -170.76327113 440.21129945 -168.98046875 435.67578125 C-168.59286377 434.69138062 -168.20525879 433.70697998 -167.8059082 432.69274902 C-163.02851526 420.55208314 -158.31496411 408.38676286 -153.61117554 396.21743774 C-152.38016095 393.03320635 -151.14565047 389.85034264 -149.91029263 386.66779423 C-148.75269826 383.68318103 -147.5993006 380.69694651 -146.4453125 377.7109375 C-145.81505913 376.08994392 -145.81505913 376.08994392 -145.17207336 374.436203 C-141.44385482 365.47220168 -141.44385482 365.47220168 -140 356 C-140.89460938 355.64808594 -141.78921875 355.29617188 -142.7109375 354.93359375 C-150.54084871 351.73651913 -157.33552243 348.30438011 -164 343 C-165.13695312 342.12601563 -165.13695312 342.12601563 -166.296875 341.234375 C-180.85595374 329.28588969 -190.69108437 309.53667167 -193 291 C-194.81430736 259.3711009 -185.73645846 232.06607436 -164.73901367 208.15429688 C-163.1759619 206.41993483 -161.59442003 204.70555793 -160 203 C-159.44795898 202.40944824 -158.89591797 201.81889648 -158.32714844 201.21044922 C-150.18022164 192.59592326 -141.53060771 185.03782193 -132 178 C-131.44376953 177.58298828 -130.88753906 177.16597656 -130.31445312 176.73632812 C-78.52500975 138 -78.52500975 138 -58 138 C-58.59932639 141.33099253 -59.4127382 144.37848408 -60.61962891 147.53857422 C-60.95208115 148.41477921 -61.28453339 149.29098419 -61.62705994 150.19374084 C-61.98989578 151.13785324 -62.35273163 152.08196564 -62.7265625 153.0546875 C-63.10635757 154.05209457 -63.48615265 155.04950165 -63.87745667 156.07713318 C-65.12280744 159.34456495 -66.37382536 162.60979439 -67.625 165.875 C-68.48898341 168.13815228 -69.35266906 170.40141825 -70.21606445 172.66479492 C-74.23644236 183.19690006 -78.27479329 193.72212179 -82.31640625 204.24609375 C-82.64645157 205.10588333 -82.97649689 205.96567291 -83.31654358 206.85151672 C-84.88847097 210.94357469 -86.46605729 215.03327793 -88.0559082 219.1184082 C-90.5998681 225.66552885 -93.10890725 232.20105693 -95.3515625 238.859375 C-100.32733889 253.48028157 -100.32733889 253.48028157 -106 256.75 C-106.83660156 257.10964844 -107.67320312 257.46929688 -108.53515625 257.83984375 C-114.48703374 260.64128212 -118.7476396 266.51466653 -121.0625 272.5625 C-122.27759929 277.12110778 -122.2005773 280.42279905 -121 285 C-119.52424813 287.41159453 -118.05594318 288.99420177 -116 291 C-115.34 291 -114.68 291 -114 291 C-113.67 290.34 -113.34 289.68 -113 289 C-112.34 289 -111.68 289 -111 289 C-110.90227295 288.18829346 -110.8045459 287.37658691 -110.70385742 286.5402832 C-109.84833519 282.2371518 -108.36809067 278.41696083 -106.73828125 274.35546875 C-106.4003656 273.498927 -106.06244995 272.64238525 -105.71429443 271.7598877 C-104.97577248 269.88934272 -104.23464519 268.01982479 -103.49124146 266.1512146 C-101.43481532 260.98073371 -99.39866917 255.8022561 -97.359375 250.625 C-96.92565079 249.52540451 -96.49192657 248.42580902 -96.0450592 247.29289246 C-90.98426532 234.4501476 -86.02368053 221.56897236 -81.0625 208.6875 C-79.19310428 203.83708691 -77.32315766 198.9868863 -75.453125 194.13671875 C-74.9940979 192.94600266 -74.5350708 191.75528656 -74.06213379 190.52848816 C-69.49338195 178.6800479 -64.9057196 166.83897297 -60.3125 155 C-59.92603302 154.0038266 -59.53956604 153.0076532 -59.14138794 151.98129272 C-57.20341839 146.98612042 -55.26512395 141.99107427 -53.32666016 136.99609375 C-49.77878826 127.85353667 -46.23398204 118.70979087 -42.68887329 109.56616211 C-41.50521552 106.51345108 -40.32136388 103.46081529 -39.13745117 100.40820312 C-35.51779922 91.07494752 -31.89920597 81.74128676 -28.28509521 72.40588379 C-26.62926951 68.12904375 -24.97273687 63.85247768 -23.31616211 59.57592773 C-22.5480742 57.59250089 -21.78030895 55.60894904 -21.01293945 53.62524414 C-14.08599651 35.7190419 -7.03730627 17.8639313 0 0 Z M56 100 C55.77562256 100.80477783 55.55124512 101.60955566 55.32006836 102.4387207 C50.36995407 120.04830537 44.96384157 137.43676708 38.875 154.6875 C38.55740723 155.58729584 38.23981445 156.48709167 37.91259766 157.41415405 C36.59905334 161.13267008 35.28453402 164.85083927 33.96847534 168.56846619 C28.6537488 183.60482664 23.57057119 198.72121856 18.45568848 213.82641602 C16.1170864 220.7261998 13.76175351 227.62008824 11.39699268 234.51093674 C9.3513527 240.47234012 7.31202783 246.43588153 5.27654552 252.40076065 C4.01816457 256.08727209 2.75653663 259.77260278 1.48727417 263.4553833 C0.28939362 266.93135379 -0.89978077 270.41018465 -2.08262825 273.89129829 C-2.73363881 275.79969447 -3.39385654 277.70494198 -4.05430603 279.61009216 C-4.44372879 280.76106888 -4.83315155 281.91204559 -5.234375 283.09790039 C-5.74822754 284.59734947 -5.74822754 284.59734947 -6.27246094 286.12709045 C-7.04824581 289.19051326 -7.13199553 291.85282274 -7 295 C26.99970672 289.00307974 60.49127045 279.74020842 93.33154297 269.16845703 C95.75417017 268.39681496 98.18564865 267.65236941 100.62548828 266.93701172 C101.71974121 266.60588379 102.81399414 266.27475586 103.94140625 265.93359375 C104.89861572 265.65443115 105.8558252 265.37526855 106.84204102 265.08764648 C109.13027379 264.21034844 109.13027379 264.21034844 109.87939453 262.15795898 C110.47318914 251.53336273 103.54648467 238.38050411 100.1875 228.375 C99.51560768 226.366895 98.84381573 224.35875641 98.17211914 222.35058594 C90.93100455 200.72761149 83.54581272 179.15397713 76.14160156 157.58642578 C74.27976065 152.16251624 72.41994571 146.73791631 70.5625 141.3125 C70.26703278 140.44952301 69.97156555 139.58654602 69.66714478 138.69741821 C65.27290824 125.8507196 60.99957095 112.97605163 57 100 C56.67 100 56.34 100 56 100 Z " fill="#E64B4B" transform="translate(421,265)"/>
<path d="M0 0 C37.29 0 74.58 0 113 0 C116.12054908 6.86520798 119.10646054 13.6016096 121.7578125 20.6328125 C122.09827103 21.52639465 122.43872955 22.41997681 122.789505 23.34063721 C123.52177964 25.26337515 124.25253936 27.18669062 124.98190308 29.11053467 C126.97369376 34.3630936 128.97787352 39.61092809 130.98046875 44.859375 C131.39508865 45.94685028 131.80970856 47.03432556 132.2368927 48.15475464 C136.59513809 59.57780027 141.01140018 70.97810821 145.4375 82.375 C146.23193684 84.42138546 147.02637042 86.46777218 147.82080078 88.51416016 C149.4164497 92.62384549 151.01256201 96.73335056 152.60888672 100.84277344 C156.57735007 111.06000271 160.53816501 121.28019919 164.5 131.5 C166.0663274 135.54039516 167.63272226 139.58076415 169.19921875 143.62109375 C169.783013 145.12682701 169.783013 145.12682701 170.37860107 146.66297913 C172.88245972 153.12016521 175.38832075 159.57657124 177.89541626 166.03250122 C179.62019279 170.47412484 181.34430019 174.91600806 183.06835938 179.35791016 C183.88361897 181.45781155 184.69919967 183.55758831 185.51513672 185.65722656 C187.6932052 191.26213493 189.86375511 196.8698313 192.02496338 202.48126221 C192.97641751 204.93908116 193.94095578 207.3914297 194.90771484 209.84326172 C195.47398655 211.3003183 196.03992679 212.75750377 196.60546875 214.21484375 C196.86677078 214.86691299 197.12807281 215.51898224 197.39729309 216.19081116 C199.11356356 220.65930933 199.11356356 220.65930933 198 224 C195.64038086 225.41943359 195.64038086 225.41943359 192.46484375 226.8984375 C191.27906738 227.45378174 190.09329102 228.00912598 188.87158203 228.58129883 C187.5606266 229.18008725 186.24925377 229.77796252 184.9375 230.375 C183.94118561 230.83403214 183.94118561 230.83403214 182.92474365 231.30233765 C161.1356282 241.3383807 138.80062504 250.131236 116.3203125 258.48828125 C115.13332764 258.92974487 115.13332764 258.92974487 113.92236328 259.38012695 C112 260 112 260 110 260 C95.50618203 217.69423136 81.10064661 175.35527717 66.9375 132.9375 C66.7095575 132.25626068 66.48161499 131.57502136 66.24676514 130.87313843 C63.04119613 121.285956 59.98703548 111.65694542 57 102 C55.13245481 107.49169228 53.36387882 113.00864588 51.65234375 118.55078125 C47.45077642 132.13611938 43.23776134 145.69585417 38.375 159.0625 C33.83442349 171.54931476 29.51750887 184.10490119 25.25 196.6875 C24.90088562 197.71626251 24.55177124 198.74502502 24.19207764 199.80496216 C19.97815648 212.22593026 15.77919143 224.65195844 11.57977295 237.07783508 C10.56145888 240.09091337 9.54294369 243.10392354 8.52423096 246.11686707 C8.27357754 246.85820672 8.02292412 247.59954638 7.76467514 248.36335087 C7.26018286 249.85543739 6.75567901 251.34752 6.25116348 252.83959866 C4.75645334 257.26066697 3.26337126 261.68228106 1.77153397 266.10431957 C0.83959371 268.86590164 -0.09350506 271.6270913 -1.02687836 274.38818932 C-1.46425236 275.68289624 -1.90111376 276.97777645 -2.33744049 278.27283669 C-2.93587798 280.04887356 -3.53624624 281.82425951 -4.13671875 283.59960938 C-4.47405029 284.59907593 -4.81138184 285.59854248 -5.15893555 286.6282959 C-6 289 -6 289 -7 291 C-16.12419733 293.63170192 -25.88737304 294.66248461 -35.25 296.125 C-36.88183228 296.38095947 -36.88183228 296.38095947 -38.54663086 296.64208984 C-50.21453079 298.42081407 -61.63277618 299.20078802 -73.4375 299.25 C-75.28698242 299.2809375 -75.28698242 299.2809375 -77.17382812 299.3125 C-90.47265069 299.3687021 -100.44249716 296.19151938 -112 290 C-107.42656957 276.7043448 -102.42337388 263.59710841 -97.3125 250.5 C-96.47147533 248.33865283 -95.63074282 246.17719196 -94.7902832 244.015625 C-93.05177475 239.54512186 -91.31203537 235.07510096 -89.57128906 230.60546875 C-85.98787912 221.40261286 -82.41605423 212.19526877 -78.84579468 202.98730469 C-78.07004741 200.98661049 -77.29418783 198.98595983 -76.51821899 196.98535156 C-69.99387696 180.16394059 -63.49344109 163.33336045 -57 146.5 C-48.20299978 123.69497666 -39.37963409 100.90032722 -30.53535461 78.11360168 C-28.07716142 71.77919228 -25.62232494 65.4434914 -23.16975403 59.10690308 C-21.46187624 54.69435375 -19.75320629 50.28211133 -18.04452515 45.86987305 C-17.24093873 43.79417535 -16.43771902 41.71833565 -15.63491821 39.64233398 C-14.51414941 36.74423028 -13.39196488 33.84667801 -12.26953125 30.94921875 C-11.95560425 30.1363591 -11.64167725 29.32349945 -11.3182373 28.48600769 C-7.62401 18.95822256 -3.79594666 9.48986665 0 0 Z " fill="#0E2345" transform="translate(421,265)"/>
<path d="M0 0 C3.34834663 1.67417331 3.89437772 5.48514995 5.1328125 8.84375 C5.44109985 9.66178604 5.74938721 10.47982208 6.0670166 11.32264709 C6.73805378 13.10509222 7.4059438 14.88872451 8.07110596 16.67337036 C9.87651466 21.51562351 11.7057443 26.34888973 13.53125 31.18359375 C13.90641754 32.1791478 14.28158508 33.17470184 14.66812134 34.20042419 C18.24599422 43.68388401 21.92405094 53.12654124 25.625 62.5625 C32.07217694 79.02196157 38.45316378 95.50641239 44.8125 112 C51.88440468 130.33776802 58.96062926 148.67381252 66.0625 167 C66.64695892 168.50882248 66.64695892 168.50882248 67.2432251 170.04812622 C71.15605305 180.1467035 75.08311306 190.23911754 79.0703125 200.30859375 C79.38332809 201.09964508 79.69634369 201.89069641 80.0188446 202.70571899 C81.45586639 206.33526802 82.89703267 209.96307268 84.34594727 213.58789062 C84.838772 214.82809815 85.33153356 216.06833078 85.82421875 217.30859375 C86.45976685 218.89885376 86.45976685 218.89885376 87.1081543 220.52124023 C88 223 88 223 88 225 C76.21197662 225.06974631 64.42400296 225.12293587 52.63581467 225.15543652 C47.16110658 225.17104122 41.68654047 225.19218395 36.21191406 225.22631836 C30.92101918 225.25909787 25.6302602 225.27689202 20.33927155 225.28463173 C18.32842115 225.29014202 16.31757755 225.30090161 14.30678558 225.31719017 C-12.42992734 225.52500827 -12.42992734 225.52500827 -21.875 218.375 C-22.71804688 217.76398438 -23.56109375 217.15296875 -24.4296875 216.5234375 C-30.67156505 210.39539358 -34.03289902 203.21829805 -36.6875 195 C-37.01952423 194.01074524 -37.35154846 193.02149048 -37.69363403 192.0022583 C-38.80819131 188.67217825 -39.90386219 185.33618399 -41 182 C-41.79532492 179.61249314 -42.59208471 177.22546387 -43.39013672 174.83886719 C-44.71908847 170.86285364 -46.04626756 166.88627293 -47.36740112 162.90765381 C-51.49784954 150.47129622 -55.68599753 138.05472324 -59.8828125 125.640625 C-60.56885795 123.61056537 -61.25487275 121.58049537 -61.94085693 119.55041504 C-62.9724439 116.49765763 -64.00404407 113.4449047 -65.03570938 110.39217377 C-68.38915895 100.46906741 -71.74241305 90.54589943 -75.08755112 80.61998749 C-75.69676842 78.81313685 -76.30655492 77.00647801 -76.91693497 75.20001984 C-77.75743888 72.71228487 -78.5960041 70.22390466 -79.43408203 67.73535156 C-79.68119934 67.00537964 -79.92831665 66.27540771 -80.18292236 65.52331543 C-81.24188319 62.3725877 -82.27309654 59.24582086 -83 56 C-82.37246826 55.6690332 -81.74493652 55.33806641 -81.09838867 54.99707031 C-57.03835743 42.26030908 -33.56678464 28.48617491 -12.9609375 10.55859375 C-8.74099277 6.91207159 -4.3803194 3.45086111 0 0 Z " fill="#0E2345" transform="translate(628,510)"/>
<path d="M0 0 C-0.6640625 1.9921875 -1.328125 3.984375 -1.9921875 5.9765625 C-2.20964127 6.62919571 -2.42709503 7.28182892 -2.65113831 7.95423889 C-3.91680232 11.75238616 -5.18396077 15.55002624 -6.45336914 19.34692383 C-9.4693654 28.37403378 -12.46615972 37.40701686 -15.43200684 46.45074463 C-17.03046229 51.32118379 -18.63615233 56.18922438 -20.24249268 61.05706787 C-21.03591829 63.4674948 -21.8261077 65.87898949 -22.61297607 68.29156494 C-23.73228399 71.72194271 -24.86303682 75.14836174 -25.99609375 78.57421875 C-26.32597794 79.59483902 -26.65586212 80.61545929 -26.9957428 81.66700745 C-30.79796989 93.07904572 -36.06184354 103.43284149 -46.8515625 109.640625 C-54.4102653 113.18567699 -60.75872122 114.14875807 -69.01293945 114.11352539 C-69.91099808 114.11367142 -70.8090567 114.11381744 -71.73432922 114.1139679 C-74.69400472 114.11327287 -77.65361679 114.10549965 -80.61328125 114.09765625 C-82.66879746 114.09579061 -84.72431412 114.0943674 -86.77983093 114.09336853 C-92.18357577 114.08955482 -97.58729363 114.0797343 -102.99102783 114.06866455 C-108.50768672 114.0584258 -114.02434997 114.05386563 -119.54101562 114.04882812 C-130.36068892 114.03811102 -141.18034221 114.02104834 -152 114 C-151.26850457 109.1939085 -149.98160489 104.94711175 -148.17578125 100.44921875 C-147.73454422 99.32836128 -147.73454422 99.32836128 -147.28439331 98.18486023 C-146.63940869 96.54800702 -145.99179516 94.91218786 -145.34188843 93.27728271 C-143.54162964 88.74810891 -141.76056784 84.21137588 -139.9765625 79.67578125 C-139.58875107 78.69138062 -139.20093964 77.70697998 -138.80137634 76.69274902 C-135.54912012 68.42694231 -132.34190191 60.14410991 -129.1484375 51.85546875 C-128.90114836 51.21374159 -128.65385921 50.57201443 -128.39907646 49.91084099 C-126.16999583 44.12555459 -123.94297452 38.33947648 -121.71743774 32.55282593 C-120.32725532 28.93835931 -118.93508259 25.32466067 -117.54296875 21.7109375 C-117.12796112 20.63027512 -116.71295349 19.54961273 -116.28536987 18.436203 C-114.28483655 13.24516619 -112.237694 8.0935504 -110 3 C-109.43603516 3.11593506 -108.87207031 3.23187012 -108.29101562 3.35131836 C-105.69464371 3.88319184 -103.09733924 4.41037146 -100.5 4.9375 C-99.613125 5.11990234 -98.72625 5.30230469 -97.8125 5.49023438 C-68.40495132 11.4366137 -37.51445083 7.54924355 -8.5546875 0.734375 C-5.52624344 0.10871843 -3.05925037 -0.06164406 0 0 Z " fill="#0E2345" transform="translate(392,621)"/>
<path d="M0 0 C-0.63077248 4.56433976 -2.43681887 8.37254195 -4.5 12.4375 C-4.85384766 13.13834717 -5.20769531 13.83919434 -5.57226562 14.5612793 C-11.32543599 25.73134671 -18.4780973 35.95713263 -26 46 C-25.05125 45.979375 -24.1025 45.95875 -23.125 45.9375 C-20 46 -20 46 -18 47 C-18.42382521 51.94462741 -20.58084866 53.5857262 -24 57 C-25.59818355 59.16896339 -27.13197911 61.32554284 -28.625 63.5625 C-32.92260966 69.91454131 -32.92260966 69.91454131 -34.8359375 72.02734375 C-36.23404669 74.0157847 -36.23404669 74.0157847 -36.00390625 76.76953125 C-34.6861864 81.0098204 -32.52478058 84.11444529 -29.9375 87.6875 C-29.44596436 88.38359375 -28.95442871 89.0796875 -28.44799805 89.796875 C-26.97700197 91.87323795 -25.49108101 93.93802779 -24 96 C-23.57041992 96.5976416 -23.14083984 97.1952832 -22.69824219 97.81103516 C-20.48519199 100.88869808 -18.25371276 103.95199879 -16 107 C-17.64302953 108.68997323 -19.31471312 110.35216394 -21 112 C-21.721875 112.7425 -22.44375 113.485 -23.1875 114.25 C-31.73747824 119.56998646 -43.14511179 116.18159405 -52.45263672 114.56689453 C-55.01980738 114.12156399 -57.58945996 113.69399165 -60.16015625 113.26953125 C-61.79443964 112.99579758 -63.42856086 112.72109357 -65.0625 112.4453125 C-65.83013672 112.31609406 -66.59777344 112.18687561 -67.38867188 112.05374146 C-72.76326203 111.11836898 -72.76326203 111.11836898 -75 110 C-74.54109375 110.51949219 -74.0821875 111.03898437 -73.609375 111.57421875 C-70.31617392 115.31712166 -67.07047811 119.06978801 -64 123 C-65.50572674 126.83275898 -67.44747239 128.91482075 -71 131 C-77.63618718 130.55059681 -84.03732749 128.95139376 -90.5 127.4375 C-91.51320313 127.20353516 -92.52640625 126.96957031 -93.5703125 126.72851562 C-96.04772479 126.15590618 -98.52422965 125.57965985 -101 125 C-99.61702141 121.42229452 -98.04383021 118.25154807 -96 115 C-97.051875 115.7734375 -97.051875 115.7734375 -98.125 116.5625 C-101.68392876 118.34196438 -103.25019194 118.2227635 -107 117 C-108.875 115.3125 -108.875 115.3125 -110 113 C-110.04470932 111.00049979 -110.04923268 108.99939394 -110 107 C-110.79664063 107.74507813 -111.59328125 108.49015625 -112.4140625 109.2578125 C-113.48342201 110.21460785 -114.553788 111.17027914 -115.625 112.125 C-116.40810547 112.86556641 -116.40810547 112.86556641 -117.20703125 113.62109375 C-118.7890625 115.0078125 -118.7890625 115.0078125 -122 117 C-126.13550813 115.99010102 -129.68781994 114.23144074 -133.3984375 112.1796875 C-134.37167969 111.64472656 -135.34492187 111.10976563 -136.34765625 110.55859375 C-137.34667969 110.00300781 -138.34570312 109.44742188 -139.375 108.875 C-140.39722656 108.31167969 -141.41945313 107.74835938 -142.47265625 107.16796875 C-144.98425792 105.7830669 -147.49323719 104.39363545 -150 103 C-149.02180976 101.68677212 -148.0424189 100.37443848 -147.0625 99.0625 C-146.24458984 97.96615234 -146.24458984 97.96615234 -145.41015625 96.84765625 C-144 95 -144 95 -143 94 C-141.29227642 93.91286169 -139.58101351 93.89299993 -137.87109375 93.90234375 C-136.31938477 93.90717773 -136.31938477 93.90717773 -134.73632812 93.91210938 C-133.64771484 93.92048828 -132.55910156 93.92886719 -131.4375 93.9375 C-129.7987793 93.94426758 -129.7987793 93.94426758 -128.12695312 93.95117188 C-125.41791505 93.96300174 -122.70898401 93.97948457 -120 94 C-122.80478777 91.01642584 -125.63204957 88.79035693 -129.09765625 86.6171875 C-130.54688477 85.70259766 -130.54688477 85.70259766 -132.02539062 84.76953125 C-133.02763672 84.14433594 -134.02988281 83.51914062 -135.0625 82.875 C-137.05346212 81.62251775 -139.04435081 80.36991878 -141.03515625 79.1171875 C-141.9156665 78.56659668 -142.79617676 78.01600586 -143.70336914 77.44873047 C-145.48527907 76.32468948 -147.24702362 75.16865092 -149 74 C-149 73.01 -149 72.02 -149 71 C-150.98 70.34 -152.96 69.68 -155 69 C-150.56927902 59.97706344 -150.56927902 59.97706344 -147 57 C-142.85408455 55.89690156 -138.85126615 56.06988547 -134.5859375 56.2109375 C-133.37990875 56.21429108 -132.17388 56.21764465 -130.93130493 56.22109985 C-127.07778932 56.2346369 -123.22777275 56.29986154 -119.375 56.375 C-115.54393414 56.43971232 -111.71456257 56.49199929 -107.88296509 56.50747681 C-105.50291344 56.51782185 -103.1227561 56.55595469 -100.7437439 56.62704468 C-89.96239996 56.68829167 -81.84142045 53.02542449 -74.1015625 45.546875 C-72.59330087 43.96307004 -71.1009725 42.36393818 -69.625 40.75 C-60.63480926 31.03752044 -60.63480926 31.03752044 -55 30 C-54.505 31.98 -54.505 31.98 -54 34 C-46.36493816 30.30561524 -40.89335159 25.24154951 -35.26318359 19.02685547 C-31.54438767 15.06064622 -28.15347453 12.88699333 -23.1081543 10.87207031 C-20.3143153 9.71635602 -17.92977588 8.1383356 -15.4375 6.4375 C-5.60166309 0 -5.60166309 0 0 0 Z " fill="#4E80A9" transform="translate(773,344)"/>
<path d="M0 0 C3.14829904 2.61241835 4.59921918 4.19485711 5.48046875 8.1640625 C6.31711565 22.04787862 -3.15706865 36.29294304 -11.27734375 47.00390625 C-13.39025968 50.67875096 -13.29400983 52.8103599 -13 57 C-12.83898168 62.67738659 -13.0041392 65.68015049 -17 70 C-21.5935705 75.33847382 -25.29889555 81.00570402 -29 87 C-28.08545995 88.32100229 -27.17083558 89.64194626 -26.25585938 90.96264648 C-25.4523906 92.12396131 -24.65033313 93.28625368 -23.84960938 94.44946289 C-21.74258692 97.50604246 -19.61585025 100.54344718 -17.43359375 103.546875 C-17.0255249 104.11575439 -16.61745605 104.68463379 -16.19702148 105.27075195 C-15.05480845 106.86118401 -13.90264604 108.44445656 -12.75 110.02734375 C-10.1637027 114.42058537 -9.6204768 117.50901601 -10.875 122.4375 C-13.20101006 127.30489142 -17.72708677 129.95501698 -22 133 C-22.79148437 133.70898438 -23.58296875 134.41796875 -24.3984375 135.1484375 C-30.95782042 139.81682715 -40.48204921 138.25438809 -48.05371094 136.98852539 C-51.38165268 136.37774938 -54.69153205 135.70895742 -58 135 C-58.06574219 135.71800781 -58.13148438 136.43601562 -58.19921875 137.17578125 C-59.2505349 140.8835938 -61.05736518 142.52111037 -63.8125 145.1875 C-64.68519531 146.04730469 -65.55789063 146.90710938 -66.45703125 147.79296875 C-71.13355503 151.8517029 -73.78935582 152.20859452 -80 152 C-84.53998181 151.28193212 -89.01416508 150.28803002 -93.49804688 149.28393555 C-95.6227075 148.81300813 -97.75205361 148.37012939 -99.8828125 147.92773438 C-101.2477729 147.62670465 -102.61237081 147.32402559 -103.9765625 147.01953125 C-105.20455566 146.75245361 -106.43254883 146.48537598 -107.69775391 146.21020508 C-113.33142765 144.14557986 -116.2067239 140.1455086 -119 135 C-119.70125 135.309375 -120.4025 135.61875 -121.125 135.9375 C-125.88309935 137.69592802 -128.6812321 138.50810926 -133.55859375 136.62890625 C-134.86037639 135.95691037 -136.15305847 135.26707537 -137.4375 134.5625 C-138.47052246 134.01867676 -138.47052246 134.01867676 -139.52441406 133.46386719 C-140.96436856 132.70354497 -142.40070616 131.93633653 -143.83349609 131.16259766 C-145.95592152 130.02365357 -148.09306635 128.91953085 -150.23828125 127.82421875 C-151.57591884 127.13358283 -152.91317375 126.44220508 -154.25 125.75 C-154.86931396 125.43361572 -155.48862793 125.11723145 -156.12670898 124.79125977 C-159.64142518 122.93441939 -162.47158227 121.08828165 -165 118 C-166.27452814 113.14086146 -166.48648562 111.13513312 -164.5 106.5 C-161.76564672 102.33107404 -158.37755278 98.65269051 -155 95 C-155.71671875 94.7628125 -156.4334375 94.525625 -157.171875 94.28125 C-160.45509269 92.79382541 -162.604612 90.9394596 -165.25 88.5 C-166.12140625 87.7059375 -166.9928125 86.911875 -167.890625 86.09375 C-170.48245391 83.52111982 -170.91946228 82.56376405 -171.4375 78.9375 C-170.5193655 70.6742895 -163.69794809 63.75668982 -158 58 C-155.41422972 56.70711486 -153.47127349 56.82776227 -150.57568359 56.76635742 C-149.44045258 56.73930222 -148.30522156 56.71224701 -147.1355896 56.68437195 C-145.90232941 56.65833389 -144.66906921 56.63229584 -143.3984375 56.60546875 C-140.79815443 56.53665799 -138.1978945 56.46696848 -135.59765625 56.39648438 C-131.48992494 56.28810705 -127.38221817 56.18602921 -123.27392578 56.10131836 C-119.31480637 56.01896705 -115.35679757 55.90618167 -111.3984375 55.79296875 C-110.17732269 55.77300339 -108.95620789 55.75303802 -107.6980896 55.73246765 C-97.27659586 55.4027806 -90.90901596 52.64764786 -83.75 45.0625 C-83.24726562 44.55009766 -82.74453125 44.03769531 -82.2265625 43.50976562 C-79.95871134 41.17364146 -77.88441751 38.84939902 -75.8984375 36.26171875 C-72.91340616 32.70547771 -69.39078657 31.31929737 -65 30 C-63.31507414 29.87499777 -61.62654315 29.79164051 -59.9375 29.75 C-55.60149302 29.4806828 -53.74024328 28.32569623 -50.6875 25.25 C-49.4486222 23.84181786 -48.21998623 22.4245802 -47 21 C-43.5518128 17.24722293 -40.35195079 14.86816502 -35.8125 12.5625 C-31.73440541 10.45472077 -27.80185559 8.28868902 -23.9375 5.8125 C-17.0326266 1.62909136 -8.04189827 -2.95416671 0 0 Z M-25.76953125 19.5703125 C-28 21 -28 21 -31.30078125 22.21875 C-36.77078291 24.47630378 -40.28809062 29.11123389 -44.21875 33.375 C-48.68065035 38.06092882 -53.1796958 41.17423646 -59 44 C-59.99 42.02 -59.99 42.02 -61 40 C-68.24038525 42.78564901 -72.77884309 48.71529075 -77.92773438 54.30859375 C-78.67732422 55.09105469 -79.42691406 55.87351562 -80.19921875 56.6796875 C-80.85752686 57.38851074 -81.51583496 58.09733398 -82.1940918 58.82763672 C-90.6513764 65.37535432 -98.57562485 66.67875039 -109.04296875 66.35546875 C-111.52277714 66.3378303 -114.00259585 66.32159593 -116.48242188 66.30664062 C-120.34739001 66.25470735 -124.21076645 66.18693452 -128.07495117 66.09301758 C-131.83603376 66.01174712 -135.59361615 65.99236305 -139.35546875 65.98046875 C-141.07916939 65.91233223 -141.07916939 65.91233223 -142.83769226 65.84281921 C-147.74284136 65.85695522 -150.76737653 65.92949234 -154.56167603 69.22476196 C-158.48075671 73.6039489 -158.48075671 73.6039489 -160 79 C-158.02 79.66 -156.04 80.32 -154 81 C-154 81.99 -154 82.98 -154 84 C-151.69332101 85.87175449 -151.69332101 85.87175449 -148.671875 87.65234375 C-147.56199219 88.34650391 -146.45210937 89.04066406 -145.30859375 89.75585938 C-144.12285493 90.48382124 -142.93665213 91.21102787 -141.75 91.9375 C-139.44874493 93.35646952 -137.1533704 94.78408014 -134.859375 96.21484375 C-133.83295898 96.84511475 -132.80654297 97.47538574 -131.74902344 98.12475586 C-129.16769736 99.88560538 -127.11799594 101.71394431 -125 104 C-125.66008057 103.95810547 -126.32016113 103.91621094 -127.00024414 103.87304688 C-130.02036434 103.7057184 -133.03951035 103.60241223 -136.0625 103.5 C-137.62000977 103.39945313 -137.62000977 103.39945313 -139.20898438 103.296875 C-145.18398385 103.0945529 -145.18398385 103.0945529 -150.30810547 105.81640625 C-152.04595819 107.80252365 -153.57591781 109.78052114 -155 112 C-150.30169118 116.16962439 -144.95012744 118.94700623 -139.4375 121.875 C-138.49197266 122.39835937 -137.54644531 122.92171875 -136.57226562 123.4609375 C-135.66025391 123.945625 -134.74824219 124.4303125 -133.80859375 124.9296875 C-132.98157959 125.37554199 -132.15456543 125.82139648 -131.30249023 126.28076172 C-129.01884643 127.24549286 -129.01884643 127.24549286 -126.8605957 126.25097656 C-124.37902401 124.58248511 -122.06710032 122.76526605 -119.75 120.875 C-118.85796875 120.15054688 -117.9659375 119.42609375 -117.046875 118.6796875 C-116.37140625 118.12539063 -115.6959375 117.57109375 -115 117 C-115.04382813 117.92941406 -115.08765625 118.85882813 -115.1328125 119.81640625 C-115.28607872 123.17345317 -115.28607872 123.17345317 -112.875 125.9375 C-110.16631628 128.31545052 -110.16631628 128.31545052 -106.875 127.9375 C-103.84803479 127.09326902 -103.84803479 127.09326902 -101 125 C-101.3609375 125.55429687 -101.721875 126.10859375 -102.09375 126.6796875 C-102.5578125 127.40414062 -103.021875 128.12859375 -103.5 128.875 C-103.9640625 129.59429687 -104.428125 130.31359375 -104.90625 131.0546875 C-106.16336501 132.91860466 -106.16336501 132.91860466 -106 135 C-101.98434158 136.04196123 -97.96186378 137.05473317 -93.9375 138.0625 C-92.80376953 138.35705078 -91.67003906 138.65160156 -90.50195312 138.95507812 C-82.26064142 141.05718572 -82.26064142 141.05718572 -74 140 C-71.08113411 137.58363062 -71.08113411 137.58363062 -69 135 C-70.336586 130.99024201 -71.99189371 128.69363149 -75.0625 125.8125 C-78.91595197 122.16809605 -78.91595197 122.16809605 -80 120 C-78.83919922 120.30268799 -77.67839844 120.60537598 -76.48242188 120.91723633 C-70.3040792 122.4593622 -64.02568776 123.37872479 -57.73681641 124.34204102 C-55.50373971 124.68692243 -53.27352072 125.04740018 -51.04296875 125.40820312 C-49.6017116 125.63117425 -48.16030951 125.85321091 -46.71875 126.07421875 C-45.42904297 126.27619873 -44.13933594 126.47817871 -42.81054688 126.6862793 C-37.40179748 127.13157933 -32.7567615 127.09335288 -28.03125 124.15234375 C-27.1959375 123.42144531 -26.360625 122.69054687 -25.5 121.9375 C-24.6440625 121.20402344 -23.788125 120.47054687 -22.90625 119.71484375 C-22.2771875 119.14894531 -21.648125 118.58304687 -21 118 C-25.24929936 111.10544143 -29.72327109 104.46084917 -34.53466797 97.94873047 C-41.04025548 89.0329015 -41.04025548 89.0329015 -40.9609375 85.02734375 C-39.51430528 81.97530259 -37.59535563 79.2904449 -35.625 76.5625 C-32.35778641 71.98627862 -32.35778641 71.98627862 -29.37890625 67.21875 C-28 65 -28 65 -25.3125 62.9375 C-24.1678125 61.9784375 -24.1678125 61.9784375 -23 61 C-23 59.68 -23 58.36 -23 57 C-25.70879335 55.64560332 -28.00933268 55.93498549 -31 56 C-30.53851562 55.37996094 -30.07703125 54.75992188 -29.6015625 54.12109375 C-27.37548969 51.09873798 -25.17983307 48.05576758 -23 45 C-22.59362305 44.43265137 -22.18724609 43.86530273 -21.76855469 43.28076172 C-10.22745983 27.81554271 -10.22745983 27.81554271 -5 10 C-12.20603348 10 -20.14844031 15.41900781 -25.76953125 19.5703125 Z " fill="#FDFAFC" transform="translate(778,334)"/>
<path d="M0 0 C1.05058594 0.48210938 2.10117187 0.96421875 3.18359375 1.4609375 C4.6013624 2.09940285 6.01934265 2.73739848 7.4375 3.375 C8.12521484 3.69210937 8.81292969 4.00921875 9.52148438 4.3359375 C19.15440682 8.63714938 27.99611057 9.36003524 38.5 9.3125 C39.77375488 9.30831055 41.04750977 9.30412109 42.35986328 9.29980469 C64.15250523 9.04523673 85.67858478 5.30102786 107 1 C106.125 5.875 106.125 5.875 105 7 C101.95169287 7.57826861 98.91040716 8.10312848 95.84765625 8.59375 C94.918358 8.74533569 93.98905975 8.89692139 93.03160095 9.05310059 C91.05548468 9.37444552 89.07903734 9.69375997 87.10229492 10.01123047 C84.10571721 10.49305109 81.11042932 10.98232203 78.11523438 11.47265625 C76.19278155 11.78430617 74.27025755 12.09551738 72.34765625 12.40625 C71.46183365 12.55106812 70.57601105 12.69588623 69.66334534 12.84509277 C45.80595724 16.65494004 20.22688781 18.21383397 -1 5 C-0.67 3.35 -0.34 1.7 0 0 Z " fill="#F7EFF0" transform="translate(308,554)"/>
<path d="M0 0 C-2 3 -2 3 -4.67602539 3.84375 C-5.80516357 4.0603125 -6.93430176 4.276875 -8.09765625 4.5 C-9.36125977 4.7460498 -10.62486328 4.99209961 -11.92675781 5.24560547 C-13.30509468 5.49840358 -14.68368268 5.74983568 -16.0625 6 C-16.76016479 6.12973206 -17.45782959 6.25946411 -18.17663574 6.39312744 C-49.26601564 12.16605678 -83.48499405 17.19724185 -114 6 C-113.67 5.01 -113.34 4.02 -113 3 C-111.99710937 3.28875 -110.99421875 3.5775 -109.9609375 3.875 C-85.23287683 10.21429861 -56.91829746 8.5189903 -32 4 C-30.81003418 3.78585449 -29.62006836 3.57170898 -28.39404297 3.35107422 C-27.11803223 3.12049316 -25.84202148 2.88991211 -24.52734375 2.65234375 C-23.24682129 2.42119873 -21.96629883 2.19005371 -20.64697266 1.9519043 C-18.14044518 1.49308178 -15.63605563 1.02237918 -13.13427734 0.53833008 C-12.00328613 0.3245874 -10.87229492 0.11084473 -9.70703125 -0.109375 C-8.19846558 -0.40279785 -8.19846558 -0.40279785 -6.65942383 -0.70214844 C-4.08030106 -0.9910064 -2.4358525 -0.8236518 0 0 Z " fill="#F5EDEF" transform="translate(395,618)"/>
<path d="M0 0 C-0.29630765 3.27078061 -0.7042497 4.70086324 -3.046875 7.0703125 C-4.38492188 8.08738281 -4.38492188 8.08738281 -5.75 9.125 C-7.27367187 10.30642578 -7.27367187 10.30642578 -8.828125 11.51171875 C-9.35986328 11.92212402 -9.89160156 12.3325293 -10.43945312 12.75537109 C-12.88765478 14.70795746 -15.17186863 16.84411116 -17.5 18.9375 C-37.22961826 36.0102542 -61.50346512 49.90846801 -85 61 C-84.71044922 59.13476562 -84.71044922 59.13476562 -84 57 C-81.39382862 55.33108283 -78.86938974 53.90379521 -76.125 52.5 C-55.8127312 41.64659696 -36.74937649 28.67563047 -19 14 C-18.06542969 13.23816406 -17.13085938 12.47632813 -16.16796875 11.69140625 C-12.22468868 8.47660362 -8.2924277 5.25780269 -4.4375 1.9375 C-2 0 -2 0 0 0 Z " fill="#F7EFF0" transform="translate(629,506)"/>
<path d="M0 0 C0.99 0.495 0.99 0.495 2 1 C1 4 1 4 -1.47412109 5.4987793 C-2.56289551 6.01867432 -3.65166992 6.53856934 -4.7734375 7.07421875 C-5.36366699 7.35893539 -5.95389648 7.64365204 -6.56201172 7.93699646 C-8.49459429 8.86493459 -10.4341916 9.77690568 -12.375 10.6875 C-13.71968528 11.32575324 -15.06424847 11.96426376 -16.40869141 12.60302734 C-35.47711898 21.62392359 -55.05668119 29.23134193 -74.75146484 36.75634766 C-76.70273731 37.50336268 -78.65177203 38.25632035 -80.59619141 39.02099609 C-83.55919114 40.17526246 -85.78812244 41 -89 41 C-89.495 39.515 -89.495 39.515 -90 38 C-89.08637695 37.6690332 -88.17275391 37.33806641 -87.23144531 36.99707031 C-40.57116266 23.42809308 -40.57116266 23.42809308 0 0 Z " fill="#F6EEF0" transform="translate(620,487)"/>
<path d="M0 0 C0.66 0.33 1.32 0.66 2 1 C-0.45699392 3.63249349 -2.56568654 5.78137264 -6 7 C-6.99 6.67 -7.98 6.34 -9 6 C-3.30379747 1.25316456 -3.30379747 1.25316456 0 0 Z " fill="#F9F5F6" transform="translate(604,495)"/>
</svg>
