<?xml version="1.0" encoding="UTF-8"?>
<svg xmlns="http://www.w3.org/2000/svg" xmlns:xlink="http://www.w3.org/1999/xlink" width="32px" height="32px" viewBox="0 0 32 32" version="1.1">
<g id="surface1">
<path style=" stroke:none;fill-rule:nonzero;fill:rgb(90.196079%,29.411766%,29.411766%);fill-opacity:1;" d="M 13.472656 8.480469 C 14.664062 8.480469 15.859375 8.480469 17.089844 8.480469 C 17.1875 8.699219 17.285156 8.914062 17.367188 9.140625 C 17.382812 9.183594 17.382812 9.183594 17.402344 9.226562 C 17.425781 9.289062 17.449219 9.351562 17.472656 9.410156 C 17.535156 9.578125 17.597656 9.746094 17.664062 9.914062 C 17.675781 9.949219 17.691406 9.984375 17.703125 10.019531 C 17.84375 10.386719 17.984375 10.75 18.125 11.117188 C 18.152344 11.179688 18.175781 11.246094 18.203125 11.3125 C 18.253906 11.445312 18.304688 11.574219 18.355469 11.707031 C 18.484375 12.035156 18.609375 12.359375 18.734375 12.6875 C 18.785156 12.816406 18.835938 12.945312 18.886719 13.074219 C 18.90625 13.125 18.90625 13.125 18.925781 13.171875 C 19.003906 13.378906 19.085938 13.585938 19.164062 13.792969 C 19.21875 13.933594 19.273438 14.078125 19.332031 14.21875 C 19.355469 14.285156 19.382812 14.355469 19.410156 14.421875 C 19.433594 14.484375 19.457031 14.546875 19.480469 14.609375 C 19.503906 14.671875 19.527344 14.730469 19.550781 14.789062 C 19.605469 14.925781 19.65625 15.058594 19.703125 15.195312 C 19.710938 15.21875 19.71875 15.242188 19.730469 15.269531 C 19.746094 15.3125 19.761719 15.355469 19.773438 15.402344 C 19.804688 15.488281 19.828125 15.542969 19.902344 15.601562 C 19.976562 15.625 19.976562 15.625 20.074219 15.566406 C 20.117188 15.539062 20.15625 15.515625 20.199219 15.488281 C 20.21875 15.476562 20.242188 15.460938 20.261719 15.449219 C 20.324219 15.410156 20.386719 15.367188 20.449219 15.328125 C 20.480469 15.308594 20.511719 15.285156 20.542969 15.265625 C 20.609375 15.222656 20.671875 15.179688 20.734375 15.136719 C 20.652344 15.078125 20.570312 15.035156 20.480469 14.988281 C 20.445312 14.972656 20.414062 14.957031 20.382812 14.9375 C 20.316406 14.90625 20.25 14.871094 20.183594 14.839844 C 19.664062 14.570312 19.664062 14.570312 19.585938 14.367188 C 19.574219 14.214844 19.589844 14.148438 19.679688 14.027344 C 19.734375 13.96875 19.785156 13.914062 19.839844 13.859375 C 19.90625 13.796875 19.90625 13.796875 19.9375 13.726562 C 19.914062 13.71875 19.890625 13.710938 19.867188 13.703125 C 19.761719 13.65625 19.691406 13.597656 19.609375 13.519531 C 19.582031 13.496094 19.550781 13.46875 19.523438 13.441406 C 19.441406 13.359375 19.425781 13.328125 19.410156 13.214844 C 19.4375 12.949219 19.65625 12.726562 19.839844 12.542969 C 19.921875 12.503906 19.984375 12.507812 20.078125 12.503906 C 20.132812 12.503906 20.132812 12.503906 20.1875 12.5 C 20.226562 12.5 20.265625 12.5 20.308594 12.5 C 20.390625 12.496094 20.472656 12.496094 20.558594 12.492188 C 20.6875 12.488281 20.820312 12.484375 20.953125 12.484375 C 21.078125 12.480469 21.203125 12.476562 21.332031 12.472656 C 21.390625 12.472656 21.390625 12.472656 21.449219 12.472656 C 21.78125 12.460938 21.988281 12.371094 22.214844 12.128906 C 22.230469 12.113281 22.25 12.097656 22.265625 12.082031 C 22.335938 12.003906 22.402344 11.929688 22.46875 11.847656 C 22.5625 11.734375 22.675781 11.691406 22.816406 11.648438 C 22.871094 11.644531 22.925781 11.640625 22.976562 11.640625 C 23.117188 11.632812 23.175781 11.59375 23.273438 11.496094 C 23.3125 11.449219 23.351562 11.40625 23.390625 11.359375 C 23.503906 11.238281 23.605469 11.164062 23.75 11.089844 C 23.878906 11.023438 24.007812 10.953125 24.128906 10.875 C 24.335938 10.75 24.554688 10.660156 24.796875 10.652344 C 24.925781 10.699219 25 10.757812 25.054688 10.878906 C 25.148438 11.296875 24.851562 11.707031 24.644531 12.042969 C 24.609375 12.09375 24.570312 12.144531 24.535156 12.191406 C 24.46875 12.308594 24.46875 12.378906 24.480469 12.511719 C 24.484375 12.695312 24.480469 12.789062 24.351562 12.929688 C 24.203125 13.097656 24.085938 13.28125 23.96875 13.472656 C 23.996094 13.515625 24.027344 13.554688 24.054688 13.597656 C 24.082031 13.636719 24.105469 13.671875 24.132812 13.710938 C 24.199219 13.808594 24.269531 13.90625 24.339844 14 C 24.351562 14.019531 24.363281 14.039062 24.378906 14.058594 C 24.414062 14.109375 24.449219 14.160156 24.488281 14.207031 C 24.570312 14.347656 24.589844 14.449219 24.546875 14.605469 C 24.472656 14.761719 24.328125 14.847656 24.191406 14.945312 C 24.167969 14.964844 24.140625 14.988281 24.117188 15.011719 C 23.90625 15.164062 23.601562 15.113281 23.359375 15.070312 C 23.25 15.050781 23.144531 15.03125 23.039062 15.007812 C 23.039062 15.03125 23.035156 15.054688 23.035156 15.078125 C 23 15.195312 22.941406 15.25 22.855469 15.335938 C 22.8125 15.375 22.8125 15.375 22.769531 15.417969 C 22.621094 15.546875 22.535156 15.558594 22.335938 15.550781 C 22.191406 15.527344 22.046875 15.496094 21.902344 15.464844 C 21.835938 15.449219 21.769531 15.4375 21.699219 15.421875 C 21.65625 15.410156 21.613281 15.402344 21.570312 15.394531 C 21.53125 15.382812 21.488281 15.375 21.449219 15.367188 C 21.28125 15.304688 21.1875 15.183594 21.089844 15.039062 C 21.066406 15.070312 21.042969 15.105469 21.015625 15.136719 C 20.851562 15.363281 20.679688 15.585938 20.496094 15.796875 C 20.484375 15.816406 20.46875 15.835938 20.449219 15.851562 C 20.4375 15.871094 20.421875 15.886719 20.40625 15.90625 C 20.390625 15.921875 20.378906 15.9375 20.363281 15.953125 C 20.320312 16 20.320312 16 20.226562 16.074219 C 20.152344 16.167969 20.152344 16.179688 20.164062 16.289062 C 20.1875 16.453125 20.242188 16.601562 20.304688 16.753906 C 20.320312 16.800781 20.320312 16.800781 20.339844 16.84375 C 20.375 16.941406 20.414062 17.039062 20.453125 17.136719 C 20.480469 17.207031 20.507812 17.273438 20.535156 17.34375 C 20.578125 17.453125 20.621094 17.5625 20.664062 17.675781 C 20.816406 18.054688 20.960938 18.433594 21.109375 18.8125 C 21.183594 19.003906 21.257812 19.199219 21.332031 19.390625 C 21.351562 19.449219 21.351562 19.449219 21.375 19.503906 C 21.582031 20.042969 21.789062 20.578125 22 21.117188 C 22.09375 21.355469 22.183594 21.597656 22.277344 21.835938 C 22.320312 21.945312 22.359375 22.050781 22.402344 22.15625 C 22.429688 22.222656 22.453125 22.292969 22.480469 22.359375 C 22.515625 22.453125 22.554688 22.546875 22.589844 22.640625 C 22.601562 22.671875 22.613281 22.699219 22.625 22.730469 C 22.675781 22.863281 22.726562 22.992188 22.78125 23.125 C 22.792969 23.160156 22.792969 23.160156 22.808594 23.191406 C 22.832031 23.253906 22.855469 23.3125 22.878906 23.371094 C 22.910156 23.457031 22.910156 23.457031 22.910156 23.519531 C 22.535156 23.523438 22.15625 23.523438 21.78125 23.523438 C 21.605469 23.527344 21.429688 23.527344 21.253906 23.527344 C 21.085938 23.527344 20.917969 23.527344 20.746094 23.527344 C 20.683594 23.527344 20.617188 23.53125 20.554688 23.53125 C 19.699219 23.535156 19.699219 23.535156 19.394531 23.308594 C 19.367188 23.289062 19.34375 23.269531 19.3125 23.25 C 19.113281 23.050781 19.007812 22.824219 18.921875 22.558594 C 18.910156 22.527344 18.902344 22.496094 18.890625 22.464844 C 18.855469 22.359375 18.820312 22.25 18.785156 22.144531 C 18.757812 22.066406 18.734375 21.992188 18.707031 21.914062 C 18.664062 21.789062 18.621094 21.660156 18.582031 21.53125 C 18.457031 21.167969 18.335938 20.800781 18.210938 20.4375 C 18.144531 20.242188 18.078125 20.046875 18.011719 19.851562 C 17.957031 19.6875 17.902344 19.523438 17.847656 19.363281 C 17.796875 19.207031 17.742188 19.050781 17.691406 18.898438 C 17.671875 18.839844 17.652344 18.78125 17.632812 18.722656 C 17.605469 18.644531 17.578125 18.5625 17.550781 18.484375 C 17.539062 18.449219 17.539062 18.449219 17.527344 18.414062 C 17.496094 18.320312 17.472656 18.242188 17.472656 18.144531 C 17.449219 18.144531 17.429688 18.144531 17.40625 18.144531 C 17.40625 18.121094 17.40625 18.101562 17.40625 18.078125 C 17.390625 18.089844 17.371094 18.097656 17.351562 18.109375 C 16.453125 18.558594 15.515625 18.921875 14.558594 19.230469 C 14.503906 19.25 14.503906 19.25 14.445312 19.269531 C 14.085938 19.386719 13.726562 19.5 13.359375 19.585938 C 13.335938 19.59375 13.3125 19.597656 13.289062 19.605469 C 13.179688 19.628906 13.066406 19.65625 12.957031 19.679688 C 12.917969 19.6875 12.878906 19.699219 12.835938 19.707031 C 12.800781 19.714844 12.765625 19.722656 12.730469 19.730469 C 12.578125 19.808594 12.527344 19.964844 12.464844 20.117188 C 12.453125 20.160156 12.4375 20.203125 12.421875 20.246094 C 12.414062 20.269531 12.40625 20.292969 12.398438 20.316406 C 12.375 20.394531 12.347656 20.46875 12.324219 20.546875 C 12.304688 20.601562 12.285156 20.652344 12.269531 20.707031 C 12.222656 20.851562 12.175781 20.992188 12.125 21.132812 C 12.050781 21.359375 11.976562 21.585938 11.898438 21.8125 C 11.875 21.890625 11.847656 21.96875 11.820312 22.046875 C 11.453125 23.148438 11.453125 23.148438 11.046875 23.378906 C 10.804688 23.492188 10.601562 23.523438 10.335938 23.523438 C 10.308594 23.523438 10.277344 23.523438 10.25 23.523438 C 10.152344 23.523438 10.058594 23.523438 9.964844 23.523438 C 9.898438 23.523438 9.832031 23.523438 9.765625 23.523438 C 9.59375 23.523438 9.421875 23.523438 9.25 23.523438 C 9.070312 23.523438 8.894531 23.523438 8.71875 23.523438 C 8.371094 23.519531 8.027344 23.519531 7.679688 23.519531 C 7.703125 23.367188 7.746094 23.230469 7.800781 23.085938 C 7.8125 23.0625 7.820312 23.039062 7.832031 23.015625 C 7.851562 22.960938 7.871094 22.910156 7.894531 22.855469 C 7.949219 22.710938 8.007812 22.566406 8.066406 22.421875 C 8.078125 22.390625 8.089844 22.359375 8.101562 22.324219 C 8.253906 21.9375 8.40625 21.546875 8.554688 21.160156 C 8.597656 21.058594 8.636719 20.957031 8.675781 20.851562 C 8.710938 20.757812 8.75 20.664062 8.785156 20.566406 C 8.804688 20.515625 8.804688 20.515625 8.828125 20.460938 C 8.945312 20.175781 8.945312 20.175781 8.992188 19.871094 C 8.964844 19.859375 8.933594 19.847656 8.90625 19.835938 C 8.65625 19.734375 8.4375 19.625 8.222656 19.457031 C 8.1875 19.429688 8.1875 19.429688 8.152344 19.398438 C 7.683594 19.015625 7.371094 18.386719 7.296875 17.792969 C 7.238281 16.78125 7.527344 15.90625 8.199219 15.140625 C 8.25 15.085938 8.300781 15.03125 8.351562 14.976562 C 8.371094 14.957031 8.386719 14.9375 8.40625 14.917969 C 8.667969 14.644531 8.941406 14.402344 9.246094 14.175781 C 9.265625 14.164062 9.285156 14.148438 9.300781 14.136719 C 10.960938 12.894531 10.960938 12.894531 11.617188 12.894531 C 11.597656 13.003906 11.570312 13.101562 11.53125 13.203125 C 11.523438 13.230469 11.511719 13.257812 11.5 13.285156 C 11.488281 13.316406 11.476562 13.347656 11.464844 13.378906 C 11.453125 13.410156 11.441406 13.441406 11.429688 13.472656 C 11.386719 13.578125 11.347656 13.683594 11.308594 13.789062 C 11.28125 13.859375 11.253906 13.933594 11.226562 14.003906 C 11.097656 14.34375 10.96875 14.679688 10.835938 15.015625 C 10.828125 15.042969 10.816406 15.070312 10.804688 15.097656 C 10.753906 15.230469 10.707031 15.359375 10.652344 15.492188 C 10.574219 15.703125 10.492188 15.910156 10.421875 16.125 C 10.261719 16.589844 10.261719 16.589844 10.078125 16.695312 C 10.054688 16.707031 10.027344 16.71875 10 16.730469 C 9.808594 16.820312 9.671875 17.007812 9.597656 17.203125 C 9.558594 17.347656 9.5625 17.453125 9.601562 17.601562 C 9.648438 17.675781 9.695312 17.726562 9.761719 17.792969 C 9.78125 17.792969 9.800781 17.792969 9.824219 17.792969 C 9.835938 17.769531 9.84375 17.75 9.855469 17.726562 C 9.878906 17.726562 9.898438 17.726562 9.921875 17.726562 C 9.921875 17.703125 9.925781 17.675781 9.929688 17.648438 C 9.957031 17.511719 10.003906 17.390625 10.054688 17.257812 C 10.066406 17.230469 10.078125 17.203125 10.089844 17.175781 C 10.113281 17.117188 10.136719 17.054688 10.160156 16.996094 C 10.226562 16.832031 10.292969 16.664062 10.355469 16.5 C 10.371094 16.464844 10.382812 16.429688 10.398438 16.394531 C 10.558594 15.980469 10.71875 15.570312 10.878906 15.15625 C 10.9375 15.003906 10.996094 14.847656 11.058594 14.691406 C 11.070312 14.652344 11.085938 14.617188 11.101562 14.578125 C 11.25 14.199219 11.394531 13.820312 11.542969 13.441406 C 11.554688 13.40625 11.566406 13.375 11.578125 13.34375 C 11.640625 13.183594 11.703125 13.023438 11.765625 12.863281 C 11.878906 12.570312 11.992188 12.277344 12.105469 11.984375 C 12.144531 11.886719 12.183594 11.789062 12.21875 11.691406 C 12.335938 11.394531 12.453125 11.097656 12.566406 10.796875 C 12.621094 10.660156 12.671875 10.523438 12.726562 10.386719 C 12.75 10.324219 12.773438 10.257812 12.800781 10.195312 C 13.019531 9.621094 13.246094 9.050781 13.472656 8.480469 Z M 15.265625 11.679688 C 15.257812 11.707031 15.25 11.730469 15.242188 11.757812 C 15.082031 12.320312 14.910156 12.878906 14.714844 13.429688 C 14.707031 13.457031 14.695312 13.488281 14.683594 13.515625 C 14.644531 13.636719 14.601562 13.753906 14.558594 13.875 C 14.390625 14.355469 14.226562 14.839844 14.0625 15.324219 C 13.988281 15.542969 13.914062 15.765625 13.835938 15.984375 C 13.769531 16.175781 13.707031 16.367188 13.640625 16.558594 C 13.601562 16.675781 13.558594 16.792969 13.519531 16.910156 C 13.480469 17.023438 13.441406 17.132812 13.40625 17.246094 C 13.382812 17.304688 13.363281 17.367188 13.34375 17.425781 C 13.328125 17.464844 13.316406 17.5 13.304688 17.539062 C 13.289062 17.585938 13.289062 17.585938 13.269531 17.636719 C 13.246094 17.734375 13.242188 17.820312 13.246094 17.921875 C 14.335938 17.726562 15.40625 17.433594 16.457031 17.09375 C 16.535156 17.070312 16.613281 17.042969 16.691406 17.023438 C 16.726562 17.011719 16.761719 17 16.796875 16.988281 C 16.828125 16.980469 16.859375 16.972656 16.890625 16.960938 C 16.964844 16.933594 16.964844 16.933594 16.988281 16.867188 C 17.007812 16.527344 16.785156 16.109375 16.679688 15.789062 C 16.65625 15.722656 16.636719 15.660156 16.613281 15.59375 C 16.382812 14.902344 16.144531 14.214844 15.910156 13.523438 C 15.847656 13.347656 15.789062 13.175781 15.730469 13.003906 C 15.71875 12.972656 15.710938 12.945312 15.703125 12.917969 C 15.5625 12.507812 15.425781 12.09375 15.296875 11.679688 C 15.285156 11.679688 15.273438 11.679688 15.265625 11.679688 Z M 15.265625 11.679688 "/>
<path style=" stroke:none;fill-rule:nonzero;fill:rgb(5.490196%,13.725491%,27.058825%);fill-opacity:1;" d="M 13.472656 8.480469 C 14.664062 8.480469 15.859375 8.480469 17.089844 8.480469 C 17.1875 8.699219 17.285156 8.914062 17.367188 9.140625 C 17.378906 9.167969 17.390625 9.199219 17.402344 9.226562 C 17.425781 9.289062 17.449219 9.351562 17.472656 9.410156 C 17.535156 9.578125 17.597656 9.746094 17.664062 9.914062 C 17.675781 9.949219 17.691406 9.984375 17.703125 10.019531 C 17.84375 10.386719 17.984375 10.75 18.125 11.117188 C 18.152344 11.179688 18.175781 11.246094 18.203125 11.3125 C 18.253906 11.445312 18.304688 11.574219 18.355469 11.707031 C 18.484375 12.035156 18.609375 12.359375 18.734375 12.6875 C 18.785156 12.816406 18.835938 12.945312 18.886719 13.074219 C 18.90625 13.125 18.90625 13.125 18.925781 13.171875 C 19.003906 13.378906 19.085938 13.585938 19.164062 13.792969 C 19.21875 13.933594 19.273438 14.078125 19.332031 14.21875 C 19.355469 14.285156 19.382812 14.355469 19.410156 14.421875 C 19.476562 14.601562 19.546875 14.78125 19.617188 14.960938 C 19.648438 15.039062 19.679688 15.117188 19.710938 15.195312 C 19.726562 15.242188 19.746094 15.289062 19.761719 15.335938 C 19.773438 15.355469 19.78125 15.375 19.789062 15.398438 C 19.84375 15.542969 19.84375 15.542969 19.808594 15.648438 C 19.734375 15.695312 19.734375 15.695312 19.632812 15.742188 C 19.59375 15.757812 19.554688 15.777344 19.515625 15.792969 C 19.472656 15.8125 19.433594 15.832031 19.390625 15.851562 C 19.359375 15.867188 19.359375 15.867188 19.324219 15.882812 C 18.628906 16.203125 17.914062 16.484375 17.195312 16.75 C 17.15625 16.765625 17.15625 16.765625 17.117188 16.78125 C 17.054688 16.800781 17.054688 16.800781 16.992188 16.800781 C 16.527344 15.445312 16.066406 14.089844 15.613281 12.734375 C 15.605469 12.710938 15.597656 12.691406 15.59375 12.667969 C 15.488281 12.359375 15.390625 12.054688 15.296875 11.742188 C 15.234375 11.917969 15.179688 12.097656 15.125 12.273438 C 14.992188 12.707031 14.855469 13.140625 14.699219 13.570312 C 14.554688 13.96875 14.417969 14.371094 14.28125 14.773438 C 14.269531 14.808594 14.257812 14.839844 14.246094 14.875 C 14.109375 15.269531 13.976562 15.667969 13.84375 16.066406 C 13.808594 16.164062 13.777344 16.257812 13.746094 16.355469 C 13.738281 16.378906 13.730469 16.402344 13.71875 16.425781 C 13.703125 16.476562 13.6875 16.523438 13.671875 16.570312 C 13.625 16.710938 13.578125 16.855469 13.527344 16.996094 C 13.5 17.082031 13.46875 17.171875 13.4375 17.261719 C 13.425781 17.300781 13.410156 17.34375 13.398438 17.382812 C 13.378906 17.441406 13.359375 17.5 13.339844 17.554688 C 13.328125 17.585938 13.316406 17.621094 13.308594 17.652344 C 13.28125 17.726562 13.28125 17.726562 13.246094 17.792969 C 12.957031 17.875 12.644531 17.910156 12.34375 17.957031 C 12.292969 17.964844 12.292969 17.964844 12.238281 17.972656 C 11.863281 18.03125 11.5 18.054688 11.121094 18.054688 C 11.0625 18.058594 11.0625 18.058594 11.003906 18.058594 C 10.578125 18.058594 10.257812 17.957031 9.886719 17.761719 C 10.035156 17.335938 10.195312 16.914062 10.359375 16.496094 C 10.386719 16.425781 10.410156 16.359375 10.4375 16.289062 C 10.496094 16.144531 10.550781 16.003906 10.605469 15.859375 C 10.71875 15.566406 10.835938 15.269531 10.949219 14.976562 C 10.972656 14.910156 11 14.847656 11.023438 14.785156 C 11.230469 14.246094 11.441406 13.707031 11.648438 13.167969 C 11.929688 12.4375 12.210938 11.707031 12.496094 10.980469 C 12.574219 10.777344 12.652344 10.574219 12.730469 10.371094 C 12.785156 10.230469 12.839844 10.089844 12.894531 9.949219 C 12.921875 9.882812 12.945312 9.816406 12.972656 9.75 C 13.007812 9.65625 13.042969 9.5625 13.078125 9.46875 C 13.089844 9.445312 13.097656 9.417969 13.109375 9.390625 C 13.226562 9.085938 13.351562 8.785156 13.472656 8.480469 Z M 13.472656 8.480469 "/>
<path style=" stroke:none;fill-rule:nonzero;fill:rgb(5.490196%,13.725491%,27.058825%);fill-opacity:1;" d="M 20.097656 16.320312 C 20.203125 16.375 20.21875 16.496094 20.261719 16.601562 C 20.269531 16.628906 20.28125 16.65625 20.289062 16.683594 C 20.3125 16.738281 20.332031 16.796875 20.355469 16.855469 C 20.410156 17.007812 20.46875 17.164062 20.527344 17.316406 C 20.539062 17.351562 20.554688 17.382812 20.566406 17.414062 C 20.679688 17.71875 20.796875 18.019531 20.914062 18.320312 C 21.121094 18.847656 21.328125 19.375 21.53125 19.902344 C 21.757812 20.492188 21.984375 21.078125 22.210938 21.664062 C 22.230469 21.710938 22.230469 21.710938 22.246094 21.761719 C 22.371094 22.085938 22.5 22.40625 22.625 22.730469 C 22.636719 22.753906 22.644531 22.78125 22.65625 22.804688 C 22.703125 22.921875 22.75 23.039062 22.796875 23.15625 C 22.8125 23.195312 22.828125 23.234375 22.84375 23.273438 C 22.863281 23.324219 22.863281 23.324219 22.882812 23.375 C 22.910156 23.457031 22.910156 23.457031 22.910156 23.519531 C 22.535156 23.523438 22.15625 23.523438 21.78125 23.523438 C 21.605469 23.527344 21.429688 23.527344 21.253906 23.527344 C 21.085938 23.527344 20.917969 23.527344 20.746094 23.527344 C 20.683594 23.527344 20.617188 23.53125 20.554688 23.53125 C 19.699219 23.535156 19.699219 23.535156 19.394531 23.308594 C 19.367188 23.289062 19.34375 23.269531 19.3125 23.25 C 19.113281 23.050781 19.007812 22.824219 18.921875 22.558594 C 18.910156 22.527344 18.902344 22.496094 18.890625 22.464844 C 18.855469 22.359375 18.820312 22.25 18.785156 22.144531 C 18.757812 22.066406 18.734375 21.992188 18.707031 21.914062 C 18.664062 21.789062 18.621094 21.660156 18.582031 21.53125 C 18.449219 21.136719 18.3125 20.738281 18.179688 20.339844 C 18.15625 20.277344 18.136719 20.210938 18.113281 20.144531 C 18.082031 20.046875 18.046875 19.949219 18.015625 19.851562 C 17.90625 19.535156 17.800781 19.21875 17.691406 18.898438 C 17.671875 18.84375 17.652344 18.785156 17.632812 18.726562 C 17.609375 18.648438 17.582031 18.566406 17.554688 18.488281 C 17.546875 18.464844 17.539062 18.441406 17.53125 18.417969 C 17.496094 18.316406 17.464844 18.214844 17.441406 18.113281 C 17.460938 18.101562 17.480469 18.089844 17.5 18.078125 C 18.269531 17.671875 19.023438 17.230469 19.679688 16.65625 C 19.816406 16.542969 19.957031 16.429688 20.097656 16.320312 Z M 20.097656 16.320312 "/>
<path style=" stroke:none;fill-rule:nonzero;fill:rgb(5.490196%,13.725491%,27.058825%);fill-opacity:1;" d="M 12.542969 19.871094 C 12.523438 19.9375 12.5 20 12.480469 20.0625 C 12.472656 20.085938 12.464844 20.105469 12.460938 20.125 C 12.417969 20.25 12.378906 20.371094 12.335938 20.492188 C 12.242188 20.78125 12.144531 21.070312 12.050781 21.359375 C 12 21.515625 11.949219 21.671875 11.894531 21.824219 C 11.871094 21.902344 11.84375 21.980469 11.820312 22.058594 C 11.785156 22.167969 11.75 22.277344 11.710938 22.386719 C 11.703125 22.417969 11.691406 22.453125 11.679688 22.484375 C 11.558594 22.851562 11.390625 23.183594 11.042969 23.378906 C 10.804688 23.492188 10.601562 23.523438 10.335938 23.523438 C 10.308594 23.523438 10.277344 23.523438 10.25 23.523438 C 10.152344 23.523438 10.058594 23.523438 9.964844 23.523438 C 9.898438 23.523438 9.832031 23.523438 9.765625 23.523438 C 9.59375 23.523438 9.421875 23.523438 9.25 23.523438 C 9.070312 23.523438 8.894531 23.523438 8.71875 23.523438 C 8.371094 23.519531 8.027344 23.519531 7.679688 23.519531 C 7.703125 23.367188 7.746094 23.230469 7.800781 23.085938 C 7.816406 23.050781 7.816406 23.050781 7.832031 23.015625 C 7.851562 22.960938 7.871094 22.910156 7.894531 22.855469 C 7.949219 22.710938 8.007812 22.566406 8.066406 22.421875 C 8.078125 22.390625 8.089844 22.359375 8.101562 22.324219 C 8.207031 22.0625 8.308594 21.796875 8.410156 21.53125 C 8.417969 21.511719 8.425781 21.492188 8.433594 21.46875 C 8.507812 21.285156 8.578125 21.097656 8.648438 20.914062 C 8.695312 20.796875 8.738281 20.683594 8.78125 20.566406 C 8.796875 20.53125 8.808594 20.496094 8.824219 20.460938 C 8.886719 20.296875 8.953125 20.132812 9.023438 19.96875 C 9.042969 19.972656 9.058594 19.976562 9.078125 19.980469 C 9.160156 19.996094 9.246094 20.011719 9.328125 20.03125 C 9.355469 20.035156 9.382812 20.042969 9.414062 20.046875 C 10.355469 20.238281 11.34375 20.113281 12.269531 19.894531 C 12.367188 19.875 12.445312 19.871094 12.542969 19.871094 Z M 12.542969 19.871094 "/>
<path style=" stroke:none;fill-rule:nonzero;fill:rgb(30.588236%,50.196081%,66.274512%);fill-opacity:1;" d="M 24.734375 11.007812 C 24.714844 11.152344 24.65625 11.277344 24.59375 11.40625 C 24.582031 11.429688 24.570312 11.449219 24.558594 11.472656 C 24.375 11.832031 24.144531 12.160156 23.902344 12.480469 C 23.933594 12.480469 23.964844 12.480469 23.996094 12.476562 C 24.097656 12.480469 24.097656 12.480469 24.160156 12.511719 C 24.144531 12.671875 24.078125 12.722656 23.96875 12.832031 C 23.917969 12.902344 23.867188 12.96875 23.820312 13.042969 C 23.683594 13.246094 23.683594 13.246094 23.621094 13.3125 C 23.578125 13.375 23.578125 13.375 23.582031 13.464844 C 23.625 13.601562 23.695312 13.699219 23.777344 13.8125 C 23.792969 13.835938 23.808594 13.859375 23.824219 13.882812 C 23.871094 13.949219 23.921875 14.015625 23.96875 14.078125 C 23.980469 14.097656 23.996094 14.117188 24.007812 14.136719 C 24.082031 14.238281 24.152344 14.335938 24.222656 14.433594 C 24.171875 14.484375 24.117188 14.539062 24.0625 14.59375 C 24.039062 14.617188 24.019531 14.640625 23.992188 14.664062 C 23.71875 14.835938 23.355469 14.726562 23.058594 14.675781 C 22.976562 14.660156 22.894531 14.644531 22.8125 14.632812 C 22.757812 14.625 22.707031 14.613281 22.652344 14.605469 C 22.628906 14.601562 22.605469 14.597656 22.578125 14.59375 C 22.40625 14.5625 22.40625 14.5625 22.335938 14.527344 C 22.351562 14.542969 22.367188 14.5625 22.378906 14.578125 C 22.484375 14.699219 22.589844 14.816406 22.6875 14.945312 C 22.640625 15.066406 22.578125 15.132812 22.464844 15.199219 C 22.25 15.1875 22.046875 15.132812 21.839844 15.085938 C 21.808594 15.078125 21.773438 15.070312 21.742188 15.0625 C 21.664062 15.046875 21.582031 15.027344 21.503906 15.007812 C 21.546875 14.894531 21.597656 14.792969 21.664062 14.6875 C 21.628906 14.710938 21.628906 14.710938 21.597656 14.738281 C 21.480469 14.796875 21.433594 14.792969 21.3125 14.753906 C 21.253906 14.699219 21.253906 14.699219 21.214844 14.625 C 21.214844 14.558594 21.214844 14.496094 21.214844 14.433594 C 21.191406 14.457031 21.164062 14.480469 21.140625 14.503906 C 21.105469 14.535156 21.070312 14.566406 21.035156 14.597656 C 21.011719 14.621094 21.011719 14.621094 20.984375 14.644531 C 20.933594 14.6875 20.933594 14.6875 20.832031 14.753906 C 20.699219 14.71875 20.585938 14.664062 20.46875 14.597656 C 20.4375 14.582031 20.40625 14.5625 20.371094 14.546875 C 20.339844 14.527344 20.308594 14.511719 20.277344 14.492188 C 20.242188 14.472656 20.210938 14.457031 20.175781 14.4375 C 20.097656 14.394531 20.015625 14.347656 19.9375 14.304688 C 19.96875 14.261719 20 14.21875 20.03125 14.179688 C 20.054688 14.144531 20.054688 14.144531 20.082031 14.105469 C 20.128906 14.046875 20.128906 14.046875 20.160156 14.015625 C 20.214844 14.011719 20.269531 14.011719 20.324219 14.011719 C 20.375 14.011719 20.375 14.011719 20.425781 14.011719 C 20.460938 14.011719 20.492188 14.015625 20.53125 14.015625 C 20.582031 14.015625 20.582031 14.015625 20.636719 14.015625 C 20.722656 14.015625 20.808594 14.015625 20.894531 14.015625 C 20.804688 13.921875 20.714844 13.847656 20.605469 13.78125 C 20.558594 13.75 20.558594 13.75 20.511719 13.71875 C 20.480469 13.699219 20.445312 13.679688 20.414062 13.660156 C 20.351562 13.621094 20.285156 13.578125 20.222656 13.539062 C 20.195312 13.523438 20.167969 13.503906 20.136719 13.488281 C 20.082031 13.449219 20.023438 13.414062 19.96875 13.375 C 19.96875 13.34375 19.96875 13.3125 19.96875 13.28125 C 19.90625 13.257812 19.839844 13.238281 19.777344 13.214844 C 19.917969 12.925781 19.917969 12.925781 20.03125 12.832031 C 20.164062 12.796875 20.292969 12.800781 20.429688 12.808594 C 20.46875 12.808594 20.507812 12.808594 20.546875 12.808594 C 20.667969 12.808594 20.792969 12.808594 20.914062 12.8125 C 21.039062 12.8125 21.160156 12.816406 21.285156 12.816406 C 21.359375 12.816406 21.4375 12.816406 21.511719 12.820312 C 21.855469 12.820312 22.117188 12.703125 22.363281 12.464844 C 22.414062 12.414062 22.460938 12.363281 22.507812 12.3125 C 22.796875 12 22.796875 12 22.976562 11.96875 C 22.992188 12.03125 22.992188 12.03125 23.007812 12.097656 C 23.253906 11.976562 23.425781 11.816406 23.609375 11.617188 C 23.726562 11.488281 23.835938 11.421875 23.996094 11.355469 C 24.085938 11.320312 24.164062 11.269531 24.242188 11.214844 C 24.558594 11.007812 24.558594 11.007812 24.734375 11.007812 Z M 24.734375 11.007812 "/>
<path style=" stroke:none;fill-rule:nonzero;fill:rgb(99.215686%,98.039216%,98.823529%);fill-opacity:1;" d="M 24.894531 10.6875 C 24.996094 10.773438 25.042969 10.820312 25.070312 10.949219 C 25.097656 11.394531 24.796875 11.847656 24.535156 12.191406 C 24.46875 12.308594 24.46875 12.378906 24.480469 12.511719 C 24.484375 12.695312 24.480469 12.789062 24.351562 12.929688 C 24.203125 13.097656 24.085938 13.28125 23.96875 13.472656 C 23.996094 13.515625 24.027344 13.554688 24.054688 13.597656 C 24.082031 13.636719 24.105469 13.671875 24.132812 13.710938 C 24.199219 13.808594 24.269531 13.90625 24.339844 14 C 24.351562 14.019531 24.363281 14.039062 24.378906 14.058594 C 24.414062 14.109375 24.449219 14.160156 24.488281 14.207031 C 24.570312 14.347656 24.589844 14.449219 24.546875 14.605469 C 24.472656 14.761719 24.328125 14.847656 24.191406 14.945312 C 24.167969 14.964844 24.140625 14.988281 24.117188 15.011719 C 23.90625 15.164062 23.601562 15.113281 23.359375 15.070312 C 23.25 15.050781 23.144531 15.03125 23.039062 15.007812 C 23.039062 15.03125 23.035156 15.054688 23.035156 15.078125 C 23 15.195312 22.941406 15.25 22.855469 15.335938 C 22.824219 15.363281 22.796875 15.390625 22.769531 15.417969 C 22.621094 15.546875 22.535156 15.558594 22.335938 15.550781 C 22.191406 15.527344 22.046875 15.496094 21.902344 15.464844 C 21.835938 15.449219 21.769531 15.4375 21.699219 15.421875 C 21.65625 15.410156 21.613281 15.402344 21.570312 15.394531 C 21.53125 15.382812 21.488281 15.375 21.449219 15.367188 C 21.269531 15.300781 21.175781 15.171875 21.089844 15.007812 C 21.066406 15.019531 21.042969 15.027344 21.019531 15.039062 C 20.867188 15.09375 20.777344 15.121094 20.621094 15.058594 C 20.582031 15.039062 20.539062 15.015625 20.496094 14.992188 C 20.464844 14.976562 20.464844 14.976562 20.429688 14.957031 C 20.386719 14.933594 20.339844 14.910156 20.292969 14.886719 C 20.226562 14.847656 20.15625 14.8125 20.089844 14.777344 C 20.046875 14.757812 20.003906 14.734375 19.960938 14.710938 C 19.941406 14.703125 19.921875 14.691406 19.898438 14.679688 C 19.789062 14.621094 19.695312 14.5625 19.617188 14.464844 C 19.574219 14.308594 19.570312 14.246094 19.632812 14.097656 C 19.71875 13.960938 19.828125 13.84375 19.9375 13.726562 C 19.914062 13.71875 19.890625 13.710938 19.867188 13.703125 C 19.761719 13.65625 19.691406 13.597656 19.609375 13.519531 C 19.582031 13.496094 19.550781 13.46875 19.523438 13.441406 C 19.441406 13.359375 19.425781 13.328125 19.410156 13.214844 C 19.4375 12.949219 19.65625 12.726562 19.839844 12.542969 C 19.921875 12.503906 19.984375 12.507812 20.078125 12.503906 C 20.113281 12.503906 20.148438 12.503906 20.1875 12.5 C 20.226562 12.5 20.265625 12.5 20.308594 12.5 C 20.390625 12.496094 20.472656 12.496094 20.558594 12.492188 C 20.6875 12.488281 20.820312 12.484375 20.953125 12.484375 C 21.078125 12.480469 21.203125 12.476562 21.332031 12.472656 C 21.371094 12.472656 21.410156 12.472656 21.449219 12.472656 C 21.78125 12.460938 21.988281 12.371094 22.214844 12.128906 C 22.230469 12.113281 22.25 12.097656 22.265625 12.082031 C 22.335938 12.003906 22.402344 11.929688 22.46875 11.847656 C 22.5625 11.734375 22.675781 11.691406 22.816406 11.648438 C 22.871094 11.644531 22.925781 11.640625 22.976562 11.640625 C 23.117188 11.632812 23.175781 11.59375 23.273438 11.496094 C 23.3125 11.449219 23.351562 11.40625 23.390625 11.359375 C 23.503906 11.238281 23.605469 11.164062 23.75 11.089844 C 23.878906 11.023438 24.007812 10.953125 24.128906 10.875 C 24.351562 10.738281 24.636719 10.59375 24.894531 10.6875 Z M 24.070312 11.3125 C 24 11.359375 24 11.359375 23.894531 11.398438 C 23.71875 11.472656 23.605469 11.621094 23.480469 11.757812 C 23.339844 11.90625 23.195312 12.003906 23.007812 12.097656 C 22.976562 12.03125 22.976562 12.03125 22.945312 11.96875 C 22.710938 12.058594 22.566406 12.246094 22.402344 12.425781 C 22.378906 12.449219 22.355469 12.476562 22.328125 12.5 C 22.308594 12.523438 22.289062 12.546875 22.265625 12.570312 C 21.996094 12.78125 21.742188 12.820312 21.40625 12.8125 C 21.328125 12.8125 21.246094 12.808594 21.167969 12.808594 C 21.042969 12.808594 20.921875 12.804688 20.796875 12.804688 C 20.675781 12.800781 20.558594 12.800781 20.4375 12.800781 C 20.382812 12.796875 20.382812 12.796875 20.324219 12.796875 C 20.167969 12.796875 20.070312 12.796875 19.949219 12.902344 C 19.824219 13.042969 19.824219 13.042969 19.777344 13.214844 C 19.839844 13.238281 19.902344 13.257812 19.96875 13.28125 C 19.96875 13.3125 19.96875 13.34375 19.96875 13.375 C 20.042969 13.4375 20.042969 13.4375 20.136719 13.492188 C 20.175781 13.515625 20.210938 13.539062 20.246094 13.558594 C 20.285156 13.582031 20.320312 13.605469 20.359375 13.628906 C 20.433594 13.675781 20.507812 13.722656 20.582031 13.765625 C 20.613281 13.785156 20.644531 13.808594 20.679688 13.828125 C 20.761719 13.882812 20.828125 13.941406 20.894531 14.015625 C 20.875 14.015625 20.855469 14.011719 20.832031 14.011719 C 20.734375 14.007812 20.640625 14.003906 20.542969 14 C 20.492188 13.996094 20.492188 13.996094 20.441406 13.992188 C 20.25 13.988281 20.25 13.988281 20.085938 14.074219 C 20.03125 14.136719 19.980469 14.199219 19.9375 14.273438 C 20.085938 14.40625 20.257812 14.496094 20.433594 14.589844 C 20.464844 14.605469 20.496094 14.621094 20.527344 14.640625 C 20.554688 14.652344 20.585938 14.667969 20.613281 14.6875 C 20.640625 14.699219 20.667969 14.714844 20.695312 14.730469 C 20.765625 14.761719 20.765625 14.761719 20.835938 14.726562 C 20.914062 14.675781 20.988281 14.617188 21.0625 14.554688 C 21.09375 14.53125 21.121094 14.507812 21.152344 14.484375 C 21.171875 14.46875 21.195312 14.449219 21.214844 14.433594 C 21.214844 14.460938 21.214844 14.492188 21.210938 14.523438 C 21.207031 14.628906 21.207031 14.628906 21.285156 14.71875 C 21.371094 14.792969 21.371094 14.792969 21.476562 14.78125 C 21.574219 14.753906 21.574219 14.753906 21.664062 14.6875 C 21.652344 14.707031 21.640625 14.722656 21.628906 14.742188 C 21.613281 14.765625 21.597656 14.789062 21.585938 14.8125 C 21.570312 14.835938 21.554688 14.859375 21.539062 14.882812 C 21.5 14.941406 21.5 14.941406 21.503906 15.007812 C 21.632812 15.042969 21.761719 15.074219 21.890625 15.105469 C 21.925781 15.117188 21.960938 15.125 22 15.132812 C 22.261719 15.203125 22.261719 15.203125 22.527344 15.167969 C 22.621094 15.089844 22.621094 15.089844 22.6875 15.007812 C 22.644531 14.878906 22.59375 14.804688 22.492188 14.714844 C 22.371094 14.597656 22.371094 14.597656 22.335938 14.527344 C 22.375 14.539062 22.410156 14.546875 22.449219 14.558594 C 22.644531 14.605469 22.847656 14.636719 23.046875 14.667969 C 23.121094 14.679688 23.191406 14.691406 23.261719 14.699219 C 23.308594 14.707031 23.355469 14.714844 23.402344 14.722656 C 23.441406 14.730469 23.484375 14.734375 23.527344 14.742188 C 23.699219 14.757812 23.847656 14.753906 24 14.660156 C 24.027344 14.636719 24.050781 14.613281 24.078125 14.589844 C 24.105469 14.566406 24.136719 14.542969 24.164062 14.519531 C 24.183594 14.5 24.203125 14.484375 24.222656 14.464844 C 24.089844 14.242188 23.945312 14.03125 23.789062 13.824219 C 23.582031 13.535156 23.582031 13.535156 23.585938 13.410156 C 23.632812 13.3125 23.691406 13.226562 23.757812 13.136719 C 23.859375 12.992188 23.859375 12.992188 23.957031 12.839844 C 24 12.769531 24 12.769531 24.085938 12.703125 C 24.121094 12.671875 24.121094 12.671875 24.160156 12.640625 C 24.160156 12.597656 24.160156 12.554688 24.160156 12.511719 C 24.074219 12.46875 24 12.476562 23.902344 12.480469 C 23.917969 12.460938 23.933594 12.441406 23.949219 12.417969 C 24.019531 12.324219 24.089844 12.226562 24.160156 12.128906 C 24.171875 12.109375 24.1875 12.089844 24.199219 12.074219 C 24.570312 11.578125 24.570312 11.578125 24.734375 11.007812 C 24.503906 11.007812 24.25 11.179688 24.070312 11.3125 Z M 24.070312 11.3125 "/>
<path style=" stroke:none;fill-rule:nonzero;fill:rgb(96.862745%,93.725491%,94.117647%);fill-opacity:1;" d="M 9.855469 17.726562 C 9.890625 17.742188 9.921875 17.757812 9.957031 17.773438 C 10.003906 17.796875 10.046875 17.816406 10.09375 17.835938 C 10.117188 17.847656 10.136719 17.855469 10.160156 17.867188 C 10.46875 18.003906 10.75 18.027344 11.089844 18.027344 C 11.128906 18.027344 11.167969 18.027344 11.210938 18.027344 C 11.910156 18.015625 12.597656 17.898438 13.28125 17.761719 C 13.253906 17.914062 13.253906 17.914062 13.214844 17.953125 C 13.117188 17.96875 13.019531 17.988281 12.921875 18.003906 C 12.894531 18.007812 12.863281 18.011719 12.832031 18.019531 C 12.769531 18.027344 12.707031 18.039062 12.644531 18.046875 C 12.546875 18.0625 12.453125 18.078125 12.355469 18.09375 C 12.292969 18.105469 12.234375 18.113281 12.171875 18.125 C 12.144531 18.128906 12.113281 18.132812 12.085938 18.140625 C 11.320312 18.261719 10.503906 18.3125 9.824219 17.886719 C 9.835938 17.835938 9.84375 17.78125 9.855469 17.726562 Z M 9.855469 17.726562 "/>
<path style=" stroke:none;fill-rule:nonzero;fill:rgb(96.078432%,92.941177%,93.725491%);fill-opacity:1;" d="M 12.640625 19.777344 C 12.574219 19.871094 12.574219 19.871094 12.492188 19.898438 C 12.453125 19.90625 12.417969 19.914062 12.382812 19.921875 C 12.339844 19.929688 12.300781 19.9375 12.257812 19.945312 C 12.214844 19.953125 12.171875 19.960938 12.125 19.96875 C 12.105469 19.972656 12.082031 19.976562 12.058594 19.980469 C 11.0625 20.164062 9.96875 20.328125 8.992188 19.96875 C 9.003906 19.9375 9.011719 19.90625 9.023438 19.871094 C 9.054688 19.882812 9.089844 19.890625 9.121094 19.898438 C 9.914062 20.101562 10.820312 20.046875 11.617188 19.902344 C 11.652344 19.898438 11.691406 19.890625 11.730469 19.882812 C 11.773438 19.875 11.8125 19.867188 11.855469 19.859375 C 11.894531 19.851562 11.9375 19.847656 11.980469 19.839844 C 12.058594 19.824219 12.140625 19.808594 12.21875 19.792969 C 12.257812 19.785156 12.292969 19.78125 12.328125 19.773438 C 12.378906 19.761719 12.378906 19.761719 12.425781 19.753906 C 12.507812 19.746094 12.5625 19.75 12.640625 19.777344 Z M 12.640625 19.777344 "/>
<path style=" stroke:none;fill-rule:nonzero;fill:rgb(96.862745%,93.725491%,94.117647%);fill-opacity:1;" d="M 20.128906 16.191406 C 20.117188 16.296875 20.105469 16.34375 20.03125 16.417969 C 19.988281 16.449219 19.988281 16.449219 19.945312 16.484375 C 19.894531 16.523438 19.894531 16.523438 19.84375 16.558594 C 19.828125 16.574219 19.8125 16.585938 19.792969 16.601562 C 19.714844 16.664062 19.640625 16.730469 19.566406 16.796875 C 18.9375 17.34375 18.160156 17.789062 17.40625 18.144531 C 17.417969 18.085938 17.417969 18.085938 17.441406 18.015625 C 17.523438 17.960938 17.605469 17.917969 17.691406 17.871094 C 18.34375 17.523438 18.953125 17.109375 19.519531 16.640625 C 19.550781 16.617188 19.578125 16.589844 19.609375 16.566406 C 19.738281 16.464844 19.863281 16.359375 19.984375 16.253906 C 20.0625 16.191406 20.0625 16.191406 20.128906 16.191406 Z M 20.128906 16.191406 "/>
<path style=" stroke:none;fill-rule:nonzero;fill:rgb(96.470588%,93.333334%,94.117647%);fill-opacity:1;" d="M 19.839844 15.585938 C 19.871094 15.601562 19.871094 15.601562 19.902344 15.617188 C 19.871094 15.710938 19.871094 15.710938 19.792969 15.761719 C 19.757812 15.777344 19.722656 15.792969 19.6875 15.808594 C 19.667969 15.820312 19.648438 15.828125 19.628906 15.839844 C 19.566406 15.867188 19.507812 15.898438 19.445312 15.925781 C 19.402344 15.945312 19.359375 15.96875 19.316406 15.988281 C 18.703125 16.277344 18.078125 16.519531 17.449219 16.761719 C 17.386719 16.785156 17.324219 16.808594 17.261719 16.832031 C 17.167969 16.871094 17.09375 16.894531 16.992188 16.894531 C 16.976562 16.847656 16.976562 16.847656 16.960938 16.800781 C 16.988281 16.789062 17.019531 16.777344 17.046875 16.769531 C 18.542969 16.332031 18.542969 16.332031 19.839844 15.585938 Z M 19.839844 15.585938 "/>
<path style=" stroke:none;fill-rule:nonzero;fill:rgb(97.647059%,96.078432%,96.470588%);fill-opacity:1;" d="M 19.328125 15.839844 C 19.347656 15.851562 19.371094 15.859375 19.390625 15.871094 C 19.3125 15.957031 19.246094 16.023438 19.136719 16.0625 C 19.105469 16.054688 19.074219 16.042969 19.039062 16.03125 C 19.222656 15.878906 19.222656 15.878906 19.328125 15.839844 Z M 19.328125 15.839844 "/>
</g>
</svg>
